<svg width="28" height="28" viewBox="0 0 28 28" fill="none" xmlns="http://www.w3.org/2000/svg">
<path d="M2.1543 5.38462C2.1543 3.00554 4.08292 1.07692 6.46199 1.07692H17.2312L25.8466 9.6923V22.6154C25.8466 24.9945 23.918 26.9231 21.5389 26.9231H6.46199C4.08291 26.9231 2.1543 24.9945 2.1543 22.6154V5.38462Z" fill="url(#paint0_linear_864_651)"/>
<g filter="url(#filter0_d_864_651)">
<path d="M17.2305 1.07692L25.8459 9.6923H20.4612C18.6769 9.6923 17.2305 8.24584 17.2305 6.46154V1.07692Z" fill="#84E1FF"/>
</g>
<path opacity="0.6" d="M6.46094 5.38461H12.9225" stroke="white" stroke-width="1.61538" stroke-linecap="round"/>
<path opacity="0.6" d="M6.46094 8.61539H9.69171" stroke="white" stroke-width="1.61538" stroke-linecap="round"/>
<g filter="url(#filter1_bi_864_651)">
<rect y="12.9231" width="28" height="10.7692" rx="2.15385" fill="#B8D9FF" fill-opacity="0.4"/>
<rect y="12.9231" width="28" height="10.7692" rx="2.15385" fill="#61C6FF" fill-opacity="0.46"/>
<rect x="0.215385" y="13.1385" width="27.5692" height="10.3385" rx="1.93846" stroke="#6BB9FF" stroke-opacity="0.3" stroke-width="0.430769"/>
</g>
<path d="M14.0615 21.2412V19.2685M14.0615 19.2685V15.3233C14.0615 15.3233 17.6171 14.5745 17.6171 17.2959C17.6171 20.0173 14.0615 19.2685 14.0615 19.2685Z" stroke="white" stroke-width="1.28" stroke-linecap="round" stroke-linejoin="round"/>
<path d="M20.1475 15.3V21.2426" stroke="white" stroke-width="1.28" stroke-linecap="round" stroke-linejoin="round"/>
<path d="M6.87012 21.2412L7.60231 19.4107M12.2035 21.2412L11.4713 19.4107M7.60231 19.4107L9.12413 15.6061C9.27313 15.2336 9.80044 15.2336 9.94944 15.6061L11.4713 19.4107M7.60231 19.4107H11.4713" stroke="white" stroke-width="1.28" stroke-linecap="round" stroke-linejoin="round"/>
<defs>
<filter id="filter0_d_864_651" x="13.9997" y="-3.57628e-06" width="12.9229" height="12.9231" filterUnits="userSpaceOnUse" color-interpolation-filters="sRGB">
<feFlood flood-opacity="0" result="BackgroundImageFix"/>
<feColorMatrix in="SourceAlpha" type="matrix" values="0 0 0 0 0 0 0 0 0 0 0 0 0 0 0 0 0 0 127 0" result="hardAlpha"/>
<feOffset dx="-1.07692" dy="1.07692"/>
<feGaussianBlur stdDeviation="1.07692"/>
<feComposite in2="hardAlpha" operator="out"/>
<feColorMatrix type="matrix" values="0 0 0 0 0.179497 0 0 0 0 0.500522 0 0 0 0 0.879167 0 0 0 0.54 0"/>
<feBlend mode="normal" in2="BackgroundImageFix" result="effect1_dropShadow_864_651"/>
<feBlend mode="normal" in="SourceGraphic" in2="effect1_dropShadow_864_651" result="shape"/>
</filter>
<filter id="filter1_bi_864_651" x="-2.15385" y="10.7692" width="32.3077" height="15.0769" filterUnits="userSpaceOnUse" color-interpolation-filters="sRGB">
<feFlood flood-opacity="0" result="BackgroundImageFix"/>
<feGaussianBlur in="BackgroundImageFix" stdDeviation="1.07692"/>
<feComposite in2="SourceAlpha" operator="in" result="effect1_backgroundBlur_864_651"/>
<feBlend mode="normal" in="SourceGraphic" in2="effect1_backgroundBlur_864_651" result="shape"/>
<feColorMatrix in="SourceAlpha" type="matrix" values="0 0 0 0 0 0 0 0 0 0 0 0 0 0 0 0 0 0 127 0" result="hardAlpha"/>
<feOffset/>
<feGaussianBlur stdDeviation="1.07692"/>
<feComposite in2="hardAlpha" operator="arithmetic" k2="-1" k3="1"/>
<feColorMatrix type="matrix" values="0 0 0 0 1 0 0 0 0 1 0 0 0 0 1 0 0 0 0.51 0"/>
<feBlend mode="normal" in2="shape" result="effect2_innerShadow_864_651"/>
</filter>
<linearGradient id="paint0_linear_864_651" x1="14.0005" y1="1.07692" x2="14.0005" y2="21" gradientUnits="userSpaceOnUse">
<stop stop-color="#51C6FF"/>
<stop offset="1" stop-color="#0075FF"/>
</linearGradient>
</defs>
</svg>
