<svg width="26" height="26" viewBox="0 0 26 26" fill="none" xmlns="http://www.w3.org/2000/svg">
<path d="M13 7.3545C13 5.9344 13.5057 4.57246 14.4059 3.5683C15.3061 2.56413 16.527 2 17.8 2H23C24.1046 2 25 2.98071 25 4.19048V19.8889C25 21.0987 24.1046 22.0794 23 22.0794H16.6C15.6452 22.0794 14.7295 22.5025 14.0544 23.2556V23.2556C13.5746 23.7908 12.4254 23.7908 11.9456 23.2556V23.2556C11.2705 22.5025 10.3548 22.0794 9.4 22.0794H3C1.89543 22.0794 1 21.0987 1 19.8889V4.19048C1 2.98071 1.89543 2 3 2H8.2C9.47304 2 10.6939 2.56413 11.5941 3.5683C12.4943 4.57246 13 5.9344 13 7.3545ZM13 7.3545V23.2556" stroke="#0075FF" stroke-width="2" stroke-linecap="round" stroke-linejoin="round"/>
<path d="M5 9H9M5 13H9" stroke="#0075FF" stroke-width="2" stroke-linecap="round"/>
</svg>
