<svg width="28" height="28" viewBox="0 0 28 28" fill="none" xmlns="http://www.w3.org/2000/svg">
<path d="M2.1543 5.38462C2.1543 3.00554 4.08292 1.07692 6.46199 1.07692H17.2312L25.8466 9.6923V22.6154C25.8466 24.9945 23.918 26.9231 21.5389 26.9231H6.46199C4.08291 26.9231 2.1543 24.9945 2.1543 22.6154V5.38462Z" fill="url(#paint0_linear_864_644)"/>
<g filter="url(#filter0_d_864_644)">
<path d="M17.2305 1.07692L25.8459 9.6923H20.4612C18.6769 9.6923 17.2305 8.24584 17.2305 6.46154V1.07692Z" fill="#84E1FF"/>
</g>
<path opacity="0.6" d="M6.46094 5.38461H12.9225" stroke="white" stroke-width="1.61538" stroke-linecap="round"/>
<path opacity="0.6" d="M6.46094 8.61538H9.69171" stroke="white" stroke-width="1.61538" stroke-linecap="round"/>
<g filter="url(#filter1_bi_864_644)">
<rect y="12.9231" width="28" height="10.7692" rx="2.15385" fill="#B8D9FF" fill-opacity="0.4"/>
<rect y="12.9231" width="28" height="10.7692" rx="2.15385" fill="#61C6FF" fill-opacity="0.46"/>
<rect x="0.215385" y="13.1385" width="27.5692" height="10.3385" rx="1.93846" stroke="#6BB9FF" stroke-opacity="0.3" stroke-width="0.430769"/>
</g>
<path d="M4.53585 16.4333C4.52723 16.4075 4.51647 16.3816 4.50354 16.3558C4.49062 16.3299 4.47985 16.3041 4.47123 16.2782C4.38508 16.0069 4.47554 15.8345 4.74262 15.7613C4.85462 15.7269 4.958 15.7355 5.05277 15.7872C5.15185 15.8345 5.22508 15.9207 5.27247 16.0456C5.31554 16.1619 5.35862 16.2912 5.4017 16.4333H7.50816C7.646 16.4333 7.74293 16.4699 7.79893 16.5432C7.85493 16.6121 7.88293 16.7025 7.88293 16.8145C7.88293 16.9395 7.85493 17.0364 7.79893 17.1053C7.74293 17.1699 7.646 17.2022 7.50816 17.2022H6.67462C6.722 17.2496 6.74785 17.3099 6.75216 17.3832C6.75647 17.4521 6.74354 17.5275 6.71339 17.6093C6.64877 17.7902 6.57123 17.9905 6.48077 18.2102H7.57277C7.71062 18.2102 7.80754 18.2425 7.86354 18.3072C7.91954 18.3675 7.94754 18.4622 7.94754 18.5915C7.94754 18.7121 7.91954 18.8069 7.86354 18.8758C7.80754 18.9404 7.71062 18.9727 7.57277 18.9727H3.36631C3.31893 18.9727 3.28447 18.9813 3.26293 18.9985C3.2457 19.0115 3.23708 19.0459 3.23708 19.1019V19.5995C3.23708 20.069 3.18539 20.4761 3.082 20.8207C2.97862 21.1696 2.83 21.4604 2.63616 21.693C2.4897 21.8696 2.36693 21.9665 2.26785 21.9838C2.16877 22.001 2.06323 21.9665 1.95123 21.8804C1.84354 21.8029 1.7897 21.7038 1.7897 21.5832C1.7897 21.4669 1.84139 21.3462 1.94477 21.2213C2.1257 21.0059 2.25277 20.7712 2.326 20.517C2.40354 20.2585 2.44231 19.9419 2.44231 19.5672V18.9275C2.44231 18.669 2.494 18.4859 2.59739 18.3782C2.70077 18.2662 2.87739 18.2102 3.12723 18.2102H3.66354C3.62908 18.1198 3.59462 18.0358 3.56016 17.9582C3.53 17.8807 3.4977 17.8118 3.46323 17.7515C3.32108 17.5189 3.334 17.3358 3.502 17.2022H2.41C2.27216 17.2022 2.17523 17.1699 2.11923 17.1053C2.06323 17.0364 2.03523 16.9395 2.03523 16.8145C2.03523 16.7025 2.06323 16.6121 2.11923 16.5432C2.17523 16.4699 2.27216 16.4333 2.41 16.4333H4.53585ZM4.12877 17.3509C4.18047 17.4672 4.23431 17.5964 4.29031 17.7385C4.34631 17.8807 4.40662 18.0379 4.47123 18.2102H5.6537C5.72262 18.0509 5.78077 17.9087 5.82816 17.7838C5.87554 17.6589 5.92077 17.5382 5.96385 17.4219C5.994 17.3272 6.03277 17.2539 6.08016 17.2022H4.02539C4.04693 17.2238 4.06416 17.2475 4.07708 17.2733C4.09431 17.2949 4.11154 17.3207 4.12877 17.3509ZM13.1491 17.661C13.1491 17.7989 13.1405 17.913 13.1232 18.0035C13.106 18.0939 13.0694 18.1672 13.0134 18.2232C12.9617 18.2792 12.8863 18.3179 12.7872 18.3395C12.6925 18.361 12.5654 18.3718 12.406 18.3718H9.41431C9.26785 18.3718 9.14723 18.3632 9.05246 18.3459C8.9577 18.3287 8.88231 18.2942 8.82631 18.2425C8.77031 18.1909 8.73154 18.1198 8.71 18.0293C8.68846 17.9345 8.6777 17.8118 8.6777 17.661V16.8404C8.6777 16.6896 8.68846 16.5669 8.71 16.4721C8.73154 16.3773 8.77031 16.3041 8.82631 16.2524C8.88231 16.2007 8.9577 16.1662 9.05246 16.149C9.14723 16.1318 9.26785 16.1232 9.41431 16.1232H12.406C12.5525 16.1232 12.6731 16.1339 12.7678 16.1555C12.8669 16.1727 12.9445 16.2072 13.0005 16.2589C13.0565 16.3105 13.0952 16.3838 13.1168 16.4785C13.1383 16.5733 13.1491 16.6939 13.1491 16.8404V17.661ZM13.7565 21.105C13.7565 21.2342 13.7478 21.3419 13.7306 21.4281C13.7134 21.5142 13.6768 21.581 13.6208 21.6284C13.5691 21.6801 13.4937 21.7167 13.3946 21.7382C13.2998 21.7598 13.1728 21.7705 13.0134 21.7705H11.7405C11.5854 21.7705 11.4583 21.7619 11.3592 21.7447C11.2645 21.7275 11.1891 21.693 11.1331 21.6413C11.0814 21.5939 11.0469 21.5272 11.0297 21.441C11.0125 21.3592 11.0038 21.2515 11.0038 21.1179V19.5413C11.0038 19.3949 11.0168 19.2785 11.0426 19.1924C11.0685 19.1062 11.1094 19.0416 11.1654 18.9985C11.2257 18.9512 11.3011 18.921 11.3915 18.9081C11.4863 18.8952 11.6026 18.8887 11.7405 18.8887H13.0134C13.1728 18.8887 13.302 18.9016 13.4011 18.9275C13.5002 18.949 13.5755 18.9856 13.6272 19.0373C13.6789 19.089 13.7134 19.1579 13.7306 19.2441C13.7478 19.3302 13.7565 19.4336 13.7565 19.5542V21.105ZM10.6355 21.1179C10.6355 21.2558 10.6248 21.3656 10.6032 21.4475C10.586 21.5336 10.5494 21.6004 10.4934 21.6478C10.4374 21.6952 10.3598 21.7275 10.2608 21.7447C10.166 21.7619 10.0411 21.7705 9.886 21.7705H8.794C8.63893 21.7705 8.51185 21.7619 8.41277 21.7447C8.318 21.7275 8.24262 21.693 8.18662 21.6413C8.13493 21.5939 8.10046 21.5272 8.08323 21.441C8.066 21.3549 8.05739 21.2429 8.05739 21.105V19.5025C8.05739 19.3604 8.06816 19.2462 8.0897 19.1601C8.11554 19.0739 8.15646 19.0072 8.21246 18.9598C8.26846 18.9081 8.34385 18.8758 8.43862 18.8629C8.53339 18.8456 8.65185 18.837 8.794 18.837H9.886C10.0411 18.837 10.166 18.8456 10.2608 18.8629C10.3598 18.8801 10.4352 18.9124 10.4869 18.9598C10.5429 19.0072 10.5817 19.0739 10.6032 19.1601C10.6248 19.2462 10.6355 19.3561 10.6355 19.4896V21.1179ZM12.3608 16.9502C12.3608 16.8813 12.3155 16.8469 12.2251 16.8469H9.57585C9.4897 16.8469 9.44662 16.8813 9.44662 16.9502V17.5447C9.44662 17.5792 9.45523 17.605 9.47246 17.6222C9.4897 17.6395 9.52416 17.6481 9.57585 17.6481H12.2251C12.3155 17.6481 12.3608 17.6136 12.3608 17.5447V16.9502ZM9.87308 19.6705C9.87308 19.6016 9.82785 19.5672 9.73739 19.5672H8.94262C8.85646 19.5672 8.81339 19.6016 8.81339 19.6705V20.9241C8.81339 20.9585 8.822 20.9844 8.83923 21.0016C8.85646 21.0189 8.89093 21.0275 8.94262 21.0275H9.73739C9.82785 21.0275 9.87308 20.993 9.87308 20.9241V19.6705ZM12.994 19.7287C12.994 19.6598 12.9488 19.6253 12.8583 19.6253H11.8891C11.8029 19.6253 11.7598 19.6598 11.7598 19.7287V20.9176C11.7598 20.9521 11.7685 20.9779 11.7857 20.9952C11.8029 21.0124 11.8374 21.021 11.8891 21.021H12.8583C12.9488 21.021 12.994 20.9865 12.994 20.9176V19.7287ZM17.4912 16.5173C17.5688 16.6293 17.614 16.7284 17.6269 16.8145H19.6494C19.7872 16.8145 19.882 16.849 19.9337 16.9179C19.9854 16.9825 20.0112 17.0773 20.0112 17.2022C20.0112 17.3229 19.9854 17.4176 19.9337 17.4865C19.882 17.5512 19.7872 17.5835 19.6494 17.5835H18.9128C18.7749 18.1133 18.5962 18.5807 18.3765 18.9856C18.1611 19.3862 17.8983 19.7545 17.5882 20.0905C17.8983 20.3232 18.2322 20.5321 18.5897 20.7173C18.9515 20.9025 19.3414 21.0576 19.7592 21.1825C19.8971 21.2299 19.9918 21.2945 20.0435 21.3764C20.0952 21.4582 20.0974 21.5702 20.05 21.7124C19.9725 21.9536 19.7851 22.0247 19.4878 21.9256C18.9925 21.7792 18.5294 21.5939 18.0986 21.3699C17.6678 21.1459 17.2952 20.9025 16.9808 20.6398C16.8128 20.769 16.6275 20.8961 16.4251 21.021C16.2269 21.1459 16.0202 21.2644 15.8048 21.3764C15.5937 21.4884 15.3762 21.5918 15.1522 21.6865C14.9325 21.7813 14.7171 21.8632 14.506 21.9321C14.4069 21.9622 14.3229 21.9795 14.254 21.9838C14.1894 21.9924 14.1355 21.9881 14.0925 21.9709C14.0494 21.9536 14.0149 21.9235 13.9891 21.8804C13.9632 21.8416 13.9395 21.7899 13.918 21.7253C13.8749 21.5918 13.8749 21.4819 13.918 21.3958C13.9611 21.3096 14.0774 21.2407 14.2669 21.189C14.6718 21.0598 15.0466 20.9133 15.3912 20.7496C15.7402 20.5816 16.0805 20.3641 16.4122 20.097C16.2485 19.9204 16.0977 19.7395 15.9598 19.5542C15.8263 19.369 15.7035 19.1752 15.5915 18.9727C15.4838 18.7659 15.3848 18.5484 15.2943 18.3201C15.2038 18.0918 15.1198 17.8462 15.0423 17.5835H14.3445C14.2023 17.5835 14.1075 17.5512 14.0602 17.4865C14.0128 17.4176 13.9891 17.3229 13.9891 17.2022C13.9891 17.0773 14.0128 16.9825 14.0602 16.9179C14.1075 16.849 14.2023 16.8145 14.3445 16.8145H16.7482C16.7051 16.7585 16.6577 16.7025 16.606 16.6465C16.5586 16.5862 16.5112 16.5324 16.4638 16.485C16.3389 16.3472 16.2786 16.2287 16.2829 16.1296C16.2872 16.0262 16.3454 15.9358 16.4574 15.8582C16.5522 15.7893 16.6448 15.7592 16.7352 15.7678C16.83 15.7764 16.9291 15.8389 17.0325 15.9552C17.1057 16.037 17.1811 16.1275 17.2586 16.2265C17.3405 16.3213 17.418 16.4182 17.4912 16.5173ZM15.8306 17.5835C15.9555 18.0013 16.1128 18.3696 16.3023 18.6884C16.4918 19.0072 16.7223 19.3044 16.9937 19.5801C17.2522 19.3087 17.4718 19.0115 17.6528 18.6884C17.838 18.3653 17.9888 17.997 18.1051 17.5835H15.8306ZM20.7802 17.8484C20.7069 18.1241 20.6057 18.4127 20.4765 18.7142C20.3515 19.0158 20.2223 19.3022 20.0888 19.5736C20.0112 19.7201 19.9703 19.8385 19.966 19.929C19.9617 20.0152 20.0026 20.0884 20.0888 20.1487C20.1749 20.2176 20.2654 20.2305 20.3602 20.1875C20.4549 20.1444 20.5389 20.0367 20.6122 19.8644C20.6595 19.7782 20.6983 19.6899 20.7285 19.5995C20.7586 19.5047 20.7931 19.4013 20.8318 19.2893V21.5573C20.8318 21.6952 20.8598 21.7921 20.9158 21.8481C20.9718 21.9084 21.0558 21.9385 21.1678 21.9385C21.2842 21.9385 21.366 21.9084 21.4134 21.8481C21.4651 21.7921 21.4909 21.6952 21.4909 21.5573V18.8952C21.5082 18.9382 21.5254 18.9856 21.5426 19.0373C21.5642 19.0847 21.5922 19.1536 21.6266 19.2441C21.6611 19.3432 21.7149 19.397 21.7882 19.4056C21.8657 19.4142 21.954 19.3949 22.0531 19.3475C22.1435 19.3001 22.1909 19.2419 22.1952 19.173C22.1995 19.0998 22.1651 18.9792 22.0918 18.8112C22.0574 18.7336 22.0229 18.6604 21.9885 18.5915C21.954 18.5225 21.9152 18.4515 21.8722 18.3782C21.8334 18.3007 21.7882 18.221 21.7365 18.1392C21.6891 18.053 21.6331 17.9561 21.5685 17.8484H21.8592C21.9885 17.8484 22.0789 17.8139 22.1306 17.745C22.1866 17.6761 22.2146 17.5856 22.2146 17.4736C22.2146 17.3745 22.1866 17.2884 22.1306 17.2152C22.0789 17.1419 21.9885 17.1053 21.8592 17.1053H21.4909V16.1619C21.4909 16.0241 21.4629 15.9272 21.4069 15.8712C21.3552 15.8109 21.2691 15.7807 21.1485 15.7807C21.0408 15.7807 20.9611 15.8109 20.9094 15.8712C20.8577 15.9272 20.8318 16.0241 20.8318 16.1619V17.1053H20.4377C20.3343 17.1053 20.2482 17.1376 20.1792 17.2022C20.1103 17.2625 20.0758 17.353 20.0758 17.4736C20.0758 17.5856 20.1103 17.6761 20.1792 17.745C20.2482 17.8139 20.3343 17.8484 20.4377 17.8484H20.7802ZM25.762 16.5625C25.7017 16.6832 25.6371 16.8081 25.5682 16.9373C25.4992 17.0665 25.4325 17.1807 25.3679 17.2798C25.3377 17.3272 25.3075 17.3681 25.2774 17.4025C25.2472 17.437 25.2192 17.465 25.1934 17.4865H25.3162C25.5574 17.4865 25.7318 17.5469 25.8395 17.6675C25.9472 17.7881 26.0011 17.9776 26.0011 18.2361V21.1373C26.0011 21.2795 25.9903 21.3936 25.9688 21.4798C25.9472 21.5702 25.9106 21.6413 25.8589 21.693C25.8072 21.7447 25.7362 21.7792 25.6457 21.7964C25.5595 21.8136 25.4497 21.8222 25.3162 21.8222H22.486C22.374 21.8222 22.29 21.7942 22.234 21.7382C22.178 21.6822 22.15 21.5853 22.15 21.4475C22.15 21.1976 22.262 21.0727 22.486 21.0727H25.1417C25.1891 21.0727 25.2192 21.0662 25.2322 21.0533C25.2451 21.0404 25.2515 21.0038 25.2515 20.9435V19.9484H22.8414C22.6174 19.9484 22.5054 19.8235 22.5054 19.5736C22.5054 19.453 22.5334 19.3604 22.5894 19.2958C22.6454 19.2269 22.7294 19.1924 22.8414 19.1924H25.2515V18.3912C25.2515 18.3265 25.2408 18.2856 25.2192 18.2684C25.202 18.2512 25.1632 18.2425 25.1029 18.2425H22.6605C22.5226 18.2425 22.4235 18.2124 22.3632 18.1521C22.3072 18.0875 22.2792 17.9905 22.2792 17.8613C22.2792 17.6115 22.4085 17.4865 22.6669 17.4865H22.8931C22.8414 17.4392 22.7789 17.3638 22.7057 17.2604C22.6583 17.1915 22.6152 17.1312 22.5765 17.0795C22.542 17.0235 22.5075 16.9718 22.4731 16.9244C22.4429 16.877 22.4106 16.8318 22.3762 16.7887C22.3417 16.7456 22.3051 16.6982 22.2663 16.6465C22.1672 16.5302 22.1242 16.4312 22.1371 16.3493C22.15 16.2675 22.206 16.1856 22.3051 16.1038C22.3912 16.0349 22.4774 16.009 22.5635 16.0262C22.654 16.0392 22.7445 16.1038 22.8349 16.2201C22.9469 16.3665 23.0374 16.485 23.1063 16.5755C23.1752 16.6616 23.2398 16.7521 23.3002 16.8469C23.3906 16.9933 23.4402 17.1139 23.4488 17.2087C23.4617 17.2992 23.3992 17.3875 23.2614 17.4736C23.2528 17.4822 23.2442 17.4865 23.2355 17.4865H23.7072V16.1038C23.7072 15.9573 23.7395 15.8604 23.8042 15.813C23.8731 15.7656 23.9635 15.7419 24.0755 15.7419C24.1875 15.7419 24.2758 15.7656 24.3405 15.813C24.4094 15.8604 24.4439 15.9573 24.4439 16.1038V17.4865H24.8315C24.8186 17.4779 24.8057 17.4693 24.7928 17.4607C24.7842 17.4521 24.7734 17.4435 24.7605 17.4349C24.6614 17.353 24.6162 17.2712 24.6248 17.1893C24.6377 17.1032 24.6937 16.989 24.7928 16.8469C24.8358 16.7822 24.8703 16.7262 24.8962 16.6789C24.9263 16.6272 24.9543 16.5798 24.9802 16.5367C25.006 16.4893 25.0318 16.4398 25.0577 16.3881C25.0835 16.3364 25.1137 16.2761 25.1482 16.2072C25.2214 16.0564 25.2946 15.9659 25.3679 15.9358C25.4454 15.9056 25.5337 15.9142 25.6328 15.9616C25.7706 16.0262 25.846 16.1016 25.8589 16.1878C25.8719 16.2739 25.8395 16.3989 25.762 16.5625Z" fill="white"/>
<defs>
<filter id="filter0_d_864_644" x="13.9997" y="-3.57628e-06" width="12.9229" height="12.9231" filterUnits="userSpaceOnUse" color-interpolation-filters="sRGB">
<feFlood flood-opacity="0" result="BackgroundImageFix"/>
<feColorMatrix in="SourceAlpha" type="matrix" values="0 0 0 0 0 0 0 0 0 0 0 0 0 0 0 0 0 0 127 0" result="hardAlpha"/>
<feOffset dx="-1.07692" dy="1.07692"/>
<feGaussianBlur stdDeviation="1.07692"/>
<feComposite in2="hardAlpha" operator="out"/>
<feColorMatrix type="matrix" values="0 0 0 0 0.179497 0 0 0 0 0.500522 0 0 0 0 0.879167 0 0 0 0.54 0"/>
<feBlend mode="normal" in2="BackgroundImageFix" result="effect1_dropShadow_864_644"/>
<feBlend mode="normal" in="SourceGraphic" in2="effect1_dropShadow_864_644" result="shape"/>
</filter>
<filter id="filter1_bi_864_644" x="-2.15385" y="10.7692" width="32.3077" height="15.0769" filterUnits="userSpaceOnUse" color-interpolation-filters="sRGB">
<feFlood flood-opacity="0" result="BackgroundImageFix"/>
<feGaussianBlur in="BackgroundImageFix" stdDeviation="1.07692"/>
<feComposite in2="SourceAlpha" operator="in" result="effect1_backgroundBlur_864_644"/>
<feBlend mode="normal" in="SourceGraphic" in2="effect1_backgroundBlur_864_644" result="shape"/>
<feColorMatrix in="SourceAlpha" type="matrix" values="0 0 0 0 0 0 0 0 0 0 0 0 0 0 0 0 0 0 127 0" result="hardAlpha"/>
<feOffset/>
<feGaussianBlur stdDeviation="1.07692"/>
<feComposite in2="hardAlpha" operator="arithmetic" k2="-1" k3="1"/>
<feColorMatrix type="matrix" values="0 0 0 0 1 0 0 0 0 1 0 0 0 0 1 0 0 0 0.51 0"/>
<feBlend mode="normal" in2="shape" result="effect2_innerShadow_864_644"/>
</filter>
<linearGradient id="paint0_linear_864_644" x1="14.0005" y1="1.07692" x2="14.0005" y2="21" gradientUnits="userSpaceOnUse">
<stop stop-color="#51C6FF"/>
<stop offset="1" stop-color="#0075FF"/>
</linearGradient>
</defs>
</svg>
