<svg width="28" height="28" viewBox="0 0 28 28" fill="none" xmlns="http://www.w3.org/2000/svg">
<rect x="2.1543" y="1.07692" width="23.6923" height="25.8462" rx="4.30769" fill="url(#paint0_linear_864_662)"/>
<g filter="url(#filter0_bi_864_662)">
<rect y="12.9231" width="28" height="10.7692" rx="2.15385" fill="#61C6FF" fill-opacity="0.46"/>
<rect x="0.215385" y="13.1385" width="27.5692" height="10.3385" rx="1.93846" stroke="#6BB9FF" stroke-opacity="0.3" stroke-width="0.430769"/>
</g>
<path d="M4.53585 15.6255C4.52723 15.5997 4.51647 15.5738 4.50354 15.548C4.49062 15.5222 4.47985 15.4963 4.47123 15.4705C4.38508 15.1991 4.47554 15.0268 4.74262 14.9535C4.85462 14.9191 4.958 14.9277 5.05277 14.9794C5.15185 15.0268 5.22508 15.1129 5.27247 15.2378C5.31554 15.3542 5.35862 15.4834 5.4017 15.6255H7.50816C7.646 15.6255 7.74293 15.6622 7.79893 15.7354C7.85493 15.8043 7.88293 15.8948 7.88293 16.0068C7.88293 16.1317 7.85493 16.2286 7.79893 16.2975C7.74293 16.3622 7.646 16.3945 7.50816 16.3945H6.67462C6.722 16.4418 6.74785 16.5022 6.75216 16.5754C6.75647 16.6443 6.74354 16.7197 6.71339 16.8015C6.64877 16.9825 6.57123 17.1828 6.48077 17.4025H7.57277C7.71062 17.4025 7.80754 17.4348 7.86354 17.4994C7.91954 17.5597 7.94754 17.6545 7.94754 17.7837C7.94754 17.9043 7.91954 17.9991 7.86354 18.068C7.80754 18.1326 7.71062 18.1649 7.57277 18.1649H3.36631C3.31893 18.1649 3.28447 18.1735 3.26293 18.1908C3.2457 18.2037 3.23708 18.2382 3.23708 18.2942V18.7917C3.23708 19.2612 3.18539 19.6683 3.082 20.0129C2.97862 20.3618 2.83 20.6526 2.63616 20.8852C2.4897 21.0618 2.36693 21.1588 2.26785 21.176C2.16877 21.1932 2.06323 21.1588 1.95123 21.0726C1.84354 20.9951 1.7897 20.896 1.7897 20.7754C1.7897 20.6591 1.84139 20.5385 1.94477 20.4135C2.1257 20.1982 2.25277 19.9634 2.326 19.7092C2.40354 19.4508 2.44231 19.1342 2.44231 18.7594V18.1197C2.44231 17.8612 2.494 17.6782 2.59739 17.5705C2.70077 17.4585 2.87739 17.4025 3.12723 17.4025H3.66354C3.62908 17.312 3.59462 17.228 3.56016 17.1505C3.53 17.0729 3.4977 17.004 3.46323 16.9437C3.32108 16.7111 3.334 16.528 3.502 16.3945H2.41C2.27216 16.3945 2.17523 16.3622 2.11923 16.2975C2.06323 16.2286 2.03523 16.1317 2.03523 16.0068C2.03523 15.8948 2.06323 15.8043 2.11923 15.7354C2.17523 15.6622 2.27216 15.6255 2.41 15.6255H4.53585ZM4.12877 16.5431C4.18047 16.6594 4.23431 16.7886 4.29031 16.9308C4.34631 17.0729 4.40662 17.2302 4.47123 17.4025H5.6537C5.72262 17.2431 5.78077 17.1009 5.82816 16.976C5.87554 16.8511 5.92077 16.7305 5.96385 16.6142C5.994 16.5194 6.03277 16.4462 6.08016 16.3945H4.02539C4.04693 16.416 4.06416 16.4397 4.07708 16.4655C4.09431 16.4871 4.11154 16.5129 4.12877 16.5431ZM13.1491 16.8532C13.1491 16.9911 13.1405 17.1052 13.1232 17.1957C13.106 17.2862 13.0694 17.3594 13.0134 17.4154C12.9617 17.4714 12.8863 17.5102 12.7872 17.5317C12.6925 17.5532 12.5654 17.564 12.406 17.564H9.41431C9.26785 17.564 9.14723 17.5554 9.05246 17.5382C8.9577 17.5209 8.88231 17.4865 8.82631 17.4348C8.77031 17.3831 8.73154 17.312 8.71 17.2215C8.68846 17.1268 8.6777 17.004 8.6777 16.8532V16.0326C8.6777 15.8818 8.68846 15.7591 8.71 15.6643C8.73154 15.5695 8.77031 15.4963 8.82631 15.4446C8.88231 15.3929 8.9577 15.3585 9.05246 15.3412C9.14723 15.324 9.26785 15.3154 9.41431 15.3154H12.406C12.5525 15.3154 12.6731 15.3262 12.7678 15.3477C12.8669 15.3649 12.9445 15.3994 13.0005 15.4511C13.0565 15.5028 13.0952 15.576 13.1168 15.6708C13.1383 15.7655 13.1491 15.8862 13.1491 16.0326V16.8532ZM13.7565 20.2972C13.7565 20.4265 13.7478 20.5342 13.7306 20.6203C13.7134 20.7065 13.6768 20.7732 13.6208 20.8206C13.5691 20.8723 13.4937 20.9089 13.3946 20.9305C13.2998 20.952 13.1728 20.9628 13.0134 20.9628H11.7405C11.5854 20.9628 11.4583 20.9542 11.3592 20.9369C11.2645 20.9197 11.1891 20.8852 11.1331 20.8335C11.0814 20.7862 11.0469 20.7194 11.0297 20.6332C11.0125 20.5514 11.0038 20.4437 11.0038 20.3102V18.7335C11.0038 18.5871 11.0168 18.4708 11.0426 18.3846C11.0685 18.2985 11.1094 18.2338 11.1654 18.1908C11.2257 18.1434 11.3011 18.1132 11.3915 18.1003C11.4863 18.0874 11.6026 18.0809 11.7405 18.0809H13.0134C13.1728 18.0809 13.302 18.0938 13.4011 18.1197C13.5002 18.1412 13.5755 18.1778 13.6272 18.2295C13.6789 18.2812 13.7134 18.3502 13.7306 18.4363C13.7478 18.5225 13.7565 18.6258 13.7565 18.7465V20.2972ZM10.6355 20.3102C10.6355 20.448 10.6248 20.5578 10.6032 20.6397C10.586 20.7258 10.5494 20.7926 10.4934 20.84C10.4374 20.8874 10.3598 20.9197 10.2608 20.9369C10.166 20.9542 10.0411 20.9628 9.886 20.9628H8.794C8.63893 20.9628 8.51185 20.9542 8.41277 20.9369C8.318 20.9197 8.24262 20.8852 8.18662 20.8335C8.13493 20.7862 8.10046 20.7194 8.08323 20.6332C8.066 20.5471 8.05739 20.4351 8.05739 20.2972V18.6948C8.05739 18.5526 8.06816 18.4385 8.0897 18.3523C8.11554 18.2662 8.15646 18.1994 8.21246 18.152C8.26846 18.1003 8.34385 18.068 8.43862 18.0551C8.53339 18.0378 8.65185 18.0292 8.794 18.0292H9.886C10.0411 18.0292 10.166 18.0378 10.2608 18.0551C10.3598 18.0723 10.4352 18.1046 10.4869 18.152C10.5429 18.1994 10.5817 18.2662 10.6032 18.3523C10.6248 18.4385 10.6355 18.5483 10.6355 18.6818V20.3102ZM12.3608 16.1425C12.3608 16.0735 12.3155 16.0391 12.2251 16.0391H9.57585C9.4897 16.0391 9.44662 16.0735 9.44662 16.1425V16.7369C9.44662 16.7714 9.45523 16.7972 9.47246 16.8145C9.4897 16.8317 9.52416 16.8403 9.57585 16.8403H12.2251C12.3155 16.8403 12.3608 16.8058 12.3608 16.7369V16.1425ZM9.87308 18.8628C9.87308 18.7938 9.82785 18.7594 9.73739 18.7594H8.94262C8.85646 18.7594 8.81339 18.7938 8.81339 18.8628V20.1163C8.81339 20.1508 8.822 20.1766 8.83923 20.1938C8.85646 20.2111 8.89093 20.2197 8.94262 20.2197H9.73739C9.82785 20.2197 9.87308 20.1852 9.87308 20.1163V18.8628ZM12.994 18.9209C12.994 18.852 12.9488 18.8175 12.8583 18.8175H11.8891C11.8029 18.8175 11.7598 18.852 11.7598 18.9209V20.1098C11.7598 20.1443 11.7685 20.1702 11.7857 20.1874C11.8029 20.2046 11.8374 20.2132 11.8891 20.2132H12.8583C12.9488 20.2132 12.994 20.1788 12.994 20.1098V18.9209ZM16.7094 16.8468C16.6749 16.7477 16.6362 16.6486 16.5931 16.5495C16.5543 16.4505 16.5134 16.3514 16.4703 16.2523C15.8931 16.2911 15.2706 16.3105 14.6029 16.3105C14.4392 16.3105 14.3229 16.2717 14.254 16.1942C14.1851 16.1166 14.1549 16.0132 14.1635 15.884C14.1765 15.7591 14.2195 15.6708 14.2928 15.6191C14.366 15.5631 14.4931 15.5351 14.674 15.5351C15.1048 15.5351 15.5097 15.5286 15.8888 15.5157C16.2722 15.4985 16.634 15.4748 16.9743 15.4446C17.3189 15.4102 17.6463 15.3692 17.9565 15.3218C18.2666 15.2702 18.5682 15.2077 18.8611 15.1345C18.9989 15.1086 19.1195 15.1065 19.2229 15.128C19.3263 15.1495 19.3974 15.2357 19.4362 15.3865C19.4749 15.5286 19.4598 15.6385 19.3909 15.716C19.3263 15.7935 19.2186 15.8495 19.0678 15.884C18.7965 15.9443 18.5143 16.0003 18.2214 16.052C17.9285 16.1037 17.6205 16.1468 17.2974 16.1812C17.3405 16.2932 17.3814 16.4052 17.4202 16.5172C17.4589 16.6292 17.4955 16.7391 17.53 16.8468H19.3198C19.4663 16.8468 19.5654 16.8855 19.6171 16.9631C19.6688 17.0363 19.6946 17.1268 19.6946 17.2345C19.6946 17.3508 19.6688 17.4455 19.6171 17.5188C19.5654 17.5877 19.4663 17.6222 19.3198 17.6222H17.7368C17.7583 17.7342 17.7777 17.8483 17.7949 17.9646C17.8165 18.0809 17.8358 18.1951 17.8531 18.3071H19.6752C19.8217 18.3071 19.9208 18.3415 19.9725 18.4105C20.0242 18.4794 20.05 18.5763 20.05 18.7012C20.05 18.8262 20.0242 18.9231 19.9725 18.992C19.9208 19.0609 19.8217 19.0954 19.6752 19.0954H17.9048C17.9005 19.2074 17.8918 19.3215 17.8789 19.4378C17.8703 19.5542 17.8574 19.6683 17.8402 19.7803C17.8229 19.888 17.8014 19.9871 17.7755 20.0775C17.754 20.1723 17.7282 20.252 17.698 20.3166C17.5774 20.5751 17.4202 20.7732 17.2263 20.9111C17.0325 21.0489 16.7912 21.1178 16.5026 21.1178C16.1838 21.1178 15.8112 21.0188 15.3848 20.8206C15.234 20.7474 15.1435 20.6677 15.1134 20.5815C15.0832 20.4997 15.0918 20.4028 15.1392 20.2908C15.1995 20.1658 15.2749 20.0883 15.3654 20.0582C15.4558 20.0323 15.5894 20.0582 15.766 20.1357C16.0503 20.2606 16.2894 20.3231 16.4832 20.3231C16.5995 20.3231 16.6965 20.2951 16.774 20.2391C16.8515 20.1874 16.914 20.112 16.9614 20.0129C17.0045 19.9354 17.0389 19.8083 17.0648 19.6317C17.0949 19.4551 17.1122 19.2763 17.1165 19.0954H14.2734C14.1269 19.0954 14.0278 19.0609 13.9762 18.992C13.9245 18.9231 13.8986 18.8262 13.8986 18.7012C13.8986 18.5763 13.9245 18.4794 13.9762 18.4105C14.0278 18.3415 14.1269 18.3071 14.2734 18.3071H17.0583C17.0454 18.1908 17.0282 18.0766 17.0066 17.9646C16.9851 17.8483 16.9614 17.7342 16.9355 17.6222H14.6288C14.4823 17.6222 14.3832 17.5877 14.3315 17.5188C14.2798 17.4455 14.254 17.3508 14.254 17.2345C14.254 17.1268 14.2798 17.0363 14.3315 16.9631C14.3832 16.8855 14.4823 16.8468 14.6288 16.8468H16.7094ZM25.51 18.3071V20.2585C25.51 20.5643 25.4583 20.784 25.3549 20.9175C25.2558 21.0554 25.0749 21.1222 24.8122 21.1178C24.7002 21.1178 24.5903 21.1071 24.4826 21.0855C24.3749 21.0683 24.2349 21.0231 24.0626 20.9498C23.9334 20.8895 23.8515 20.8185 23.8171 20.7366C23.7869 20.6591 23.7977 20.5578 23.8494 20.4329C23.8968 20.308 23.9614 20.2348 24.0432 20.2132C24.1251 20.1917 24.2349 20.2111 24.3728 20.2714C24.5278 20.3403 24.6312 20.3683 24.6829 20.3554C24.7389 20.3425 24.7669 20.2994 24.7669 20.2262V18.3071H23.9722C23.9722 18.6258 23.9635 18.9058 23.9463 19.1471C23.9291 19.384 23.9011 19.6015 23.8623 19.7997C23.8278 19.9978 23.7805 20.1809 23.7202 20.3489C23.6598 20.5169 23.5845 20.6892 23.494 20.8658C23.4208 21.0123 23.326 21.1028 23.2097 21.1372C23.0977 21.176 22.99 21.1652 22.8866 21.1049C22.766 21.0317 22.71 20.9455 22.7186 20.8465C22.7272 20.7474 22.7746 20.6268 22.8608 20.4846C22.9254 20.3726 22.9814 20.2498 23.0288 20.1163C23.0762 19.9871 23.1128 19.8363 23.1386 19.664C23.1688 19.4917 23.1903 19.2957 23.2032 19.076C23.2205 18.8563 23.2291 18.6 23.2291 18.3071H22.6928V20.2455C22.6928 20.4825 22.6325 20.672 22.5119 20.8142C22.3912 20.9563 22.2275 21.0274 22.0208 21.0274C21.9303 21.0274 21.8248 21.0102 21.7042 20.9757C21.5878 20.9412 21.4629 20.8874 21.3294 20.8142C21.2131 20.7495 21.1398 20.6634 21.1097 20.5557C21.0838 20.4523 21.0989 20.3511 21.1549 20.252C21.2755 20.0495 21.4392 20.0151 21.646 20.1486C21.7925 20.2348 21.8872 20.2692 21.9303 20.252C21.9734 20.2348 21.9949 20.1831 21.9949 20.0969L21.9885 18.3071H21.2777C21.2691 18.6258 21.2518 18.9102 21.226 19.16C21.2045 19.4055 21.1722 19.6295 21.1291 19.832C21.086 20.0345 21.0322 20.2175 20.9675 20.3812C20.9029 20.5492 20.8275 20.7108 20.7414 20.8658C20.6768 20.9908 20.5949 21.0748 20.4958 21.1178C20.4011 21.1609 20.302 21.1502 20.1986 21.0855C20.0952 21.0209 20.0435 20.9369 20.0435 20.8335C20.0435 20.7302 20.0802 20.6117 20.1534 20.4782C20.2266 20.3489 20.2891 20.2111 20.3408 20.0646C20.3925 19.9225 20.4355 19.7652 20.47 19.5929C20.5045 19.4163 20.5303 19.2225 20.5475 19.0114C20.5648 18.8003 20.5755 18.5655 20.5798 18.3071H20.2891C20.1469 18.3071 20.05 18.2683 19.9983 18.1908C19.9466 18.1132 19.9208 18.0249 19.9208 17.9258C19.9208 17.8268 19.9466 17.7428 19.9983 17.6738C20.05 17.6006 20.1469 17.564 20.2891 17.564H20.5863V15.8969C20.5863 15.7548 20.5949 15.6385 20.6122 15.548C20.6337 15.4575 20.6682 15.3865 20.7155 15.3348C20.7672 15.2788 20.834 15.2422 20.9158 15.2249C20.9977 15.2034 21.1011 15.1926 21.226 15.1926H22.0272C22.1522 15.1926 22.2555 15.2034 22.3374 15.2249C22.4235 15.2422 22.4925 15.2788 22.5442 15.3348C22.5958 15.3865 22.6325 15.4597 22.654 15.5545C22.6798 15.6449 22.6928 15.7634 22.6928 15.9098V17.564H23.2291V15.8905C23.2291 15.7483 23.2377 15.632 23.2549 15.5415C23.2765 15.4511 23.3109 15.38 23.3583 15.3283C23.41 15.2766 23.4789 15.2422 23.5651 15.2249C23.6512 15.2077 23.7611 15.1991 23.8946 15.1991H24.8057C24.9392 15.1991 25.0491 15.2077 25.1352 15.2249C25.2257 15.2422 25.2989 15.2766 25.3549 15.3283C25.4109 15.38 25.4497 15.4532 25.4712 15.548C25.4971 15.6385 25.51 15.7569 25.51 15.9034V17.564H25.8395C25.9774 17.564 26.0743 17.6006 26.1303 17.6738C26.1863 17.7428 26.2143 17.8268 26.2143 17.9258C26.2143 18.0249 26.1863 18.1132 26.1303 18.1908C26.0743 18.2683 25.9774 18.3071 25.8395 18.3071H25.51ZM23.9722 17.564H24.7669V16.0714C24.7669 16.024 24.7583 15.9917 24.7411 15.9745C24.7282 15.9572 24.698 15.9486 24.6506 15.9486H24.1014C24.0454 15.9486 24.0088 15.9572 23.9915 15.9745C23.9786 15.9917 23.9722 16.0283 23.9722 16.0843V17.564ZM21.2842 17.564H21.9885L21.982 16.0391C21.982 16.0046 21.9755 15.9809 21.9626 15.968C21.954 15.9551 21.9325 15.9486 21.898 15.9486H21.3811C21.3423 15.9486 21.3165 15.9551 21.3035 15.968C21.2906 15.9809 21.2842 16.0089 21.2842 16.052V17.564Z" fill="white"/>
<g filter="url(#filter1_d_864_662)">
<path d="M14 1.07692H20.4615V8.68618C20.4615 9.11625 19.9822 9.37277 19.6244 9.13421L17.5295 7.73758C17.3486 7.617 17.113 7.617 16.9321 7.73758L14.8371 9.13421C14.4793 9.37277 14 9.11625 14 8.68618V1.07692Z" fill="#84E1FF"/>
</g>
<defs>
<filter id="filter0_bi_864_662" x="-2.15385" y="10.7692" width="32.3077" height="15.0769" filterUnits="userSpaceOnUse" color-interpolation-filters="sRGB">
<feFlood flood-opacity="0" result="BackgroundImageFix"/>
<feGaussianBlur in="BackgroundImageFix" stdDeviation="1.07692"/>
<feComposite in2="SourceAlpha" operator="in" result="effect1_backgroundBlur_864_662"/>
<feBlend mode="normal" in="SourceGraphic" in2="effect1_backgroundBlur_864_662" result="shape"/>
<feColorMatrix in="SourceAlpha" type="matrix" values="0 0 0 0 0 0 0 0 0 0 0 0 0 0 0 0 0 0 127 0" result="hardAlpha"/>
<feOffset/>
<feGaussianBlur stdDeviation="1.07692"/>
<feComposite in2="hardAlpha" operator="arithmetic" k2="-1" k3="1"/>
<feColorMatrix type="matrix" values="0 0 0 0 1 0 0 0 0 1 0 0 0 0 1 0 0 0 0.51 0"/>
<feBlend mode="normal" in2="shape" result="effect2_innerShadow_864_662"/>
</filter>
<filter id="filter1_d_864_662" x="11.8462" y="-3.57628e-06" width="10.7696" height="12.4563" filterUnits="userSpaceOnUse" color-interpolation-filters="sRGB">
<feFlood flood-opacity="0" result="BackgroundImageFix"/>
<feColorMatrix in="SourceAlpha" type="matrix" values="0 0 0 0 0 0 0 0 0 0 0 0 0 0 0 0 0 0 127 0" result="hardAlpha"/>
<feOffset dy="1.07692"/>
<feGaussianBlur stdDeviation="1.07692"/>
<feComposite in2="hardAlpha" operator="out"/>
<feColorMatrix type="matrix" values="0 0 0 0 0.179497 0 0 0 0 0.500522 0 0 0 0 0.879167 0 0 0 0.54 0"/>
<feBlend mode="normal" in2="BackgroundImageFix" result="effect1_dropShadow_864_662"/>
<feBlend mode="normal" in="SourceGraphic" in2="effect1_dropShadow_864_662" result="shape"/>
</filter>
<linearGradient id="paint0_linear_864_662" x1="14.0005" y1="1.07692" x2="14.0005" y2="21" gradientUnits="userSpaceOnUse">
<stop stop-color="#51C6FF"/>
<stop offset="1" stop-color="#0075FF"/>
</linearGradient>
</defs>
</svg>
