<svg width="28" height="28" viewBox="0 0 28 28" fill="none" xmlns="http://www.w3.org/2000/svg">
<g clip-path="url(#clip0_942_334)">
<path d="M14 -6.11959e-07C21.732 -2.73984e-07 28 6.26801 28 14C28 21.732 21.732 28 14 28C6.26801 28 2.86476e-06 21.732 3.20274e-06 14C3.54071e-06 6.26801 6.26801 -9.49935e-07 14 -6.11959e-07Z" fill="#FFA31B"/>
<path d="M6.764 12.41V11.825H5.855C5.663 11.825 5.528 11.786 5.45 11.708C5.372 11.63 5.333 11.525 5.333 11.393C5.333 11.249 5.372 11.141 5.45 11.069C5.528 10.997 5.663 10.961 5.855 10.961H6.764V10.475C6.764 10.319 6.803 10.193 6.881 10.097C6.959 9.995 7.085 9.944 7.259 9.944C7.427 9.944 7.55 9.995 7.628 10.097C7.712 10.193 7.754 10.319 7.754 10.475V10.961H8.375C8.513 10.961 8.621 10.982 8.699 11.024C8.717 10.982 8.732 10.943 8.744 10.907C8.762 10.865 8.78 10.82 8.798 10.772V10.781C8.864 10.595 8.945 10.466 9.041 10.394C9.137 10.322 9.266 10.31 9.428 10.358C9.752 10.46 9.857 10.685 9.743 11.033C9.653 11.267 9.548 11.501 9.428 11.735C9.314 11.969 9.188 12.194 9.05 12.41H9.167C9.359 12.41 9.494 12.446 9.572 12.518C9.65 12.59 9.689 12.698 9.689 12.842C9.689 12.98 9.65 13.085 9.572 13.157C9.494 13.229 9.359 13.265 9.167 13.265H8.447C8.369 13.367 8.291 13.463 8.213 13.553C8.141 13.643 8.072 13.73 8.006 13.814H8.591C8.783 13.814 8.93 13.841 9.032 13.895C9.14 13.949 9.203 14.021 9.221 14.111C9.245 14.195 9.227 14.294 9.167 14.408C9.113 14.522 9.02 14.639 8.888 14.759C8.804 14.837 8.705 14.924 8.591 15.02C8.483 15.11 8.36 15.206 8.222 15.308C8.12 15.386 8.072 15.446 8.078 15.488C8.084 15.524 8.114 15.557 8.168 15.587C8.294 15.545 8.417 15.506 8.537 15.47C8.657 15.428 8.777 15.383 8.897 15.335C9.143 15.233 9.329 15.185 9.455 15.191C9.587 15.197 9.689 15.293 9.761 15.479C9.815 15.599 9.803 15.719 9.725 15.839C9.653 15.953 9.473 16.061 9.185 16.163C9.083 16.199 8.981 16.235 8.879 16.271C8.783 16.301 8.684 16.331 8.582 16.361C8.672 16.595 8.717 16.829 8.717 17.063C8.717 17.273 8.681 17.465 8.609 17.639C8.543 17.819 8.444 17.972 8.312 18.098C8.18 18.224 8.021 18.32 7.835 18.386C7.649 18.458 7.439 18.494 7.205 18.494C6.863 18.494 6.455 18.407 5.981 18.233C5.777 18.149 5.648 18.05 5.594 17.936C5.54 17.822 5.543 17.696 5.603 17.558C5.669 17.414 5.765 17.327 5.891 17.297C6.017 17.273 6.194 17.315 6.422 17.423C6.584 17.501 6.731 17.555 6.863 17.585C6.995 17.615 7.112 17.63 7.214 17.63C7.406 17.63 7.532 17.561 7.592 17.423C7.652 17.291 7.682 17.141 7.682 16.973C7.682 16.859 7.664 16.748 7.628 16.64C7.394 16.7 7.151 16.76 6.899 16.82C6.653 16.874 6.395 16.931 6.125 16.991C5.807 17.051 5.588 17.06 5.468 17.018C5.354 16.976 5.282 16.871 5.252 16.703C5.228 16.535 5.261 16.418 5.351 16.352C5.441 16.28 5.618 16.214 5.882 16.154C6.104 16.112 6.323 16.07 6.539 16.028C6.761 15.98 6.974 15.932 7.178 15.884C7.004 15.734 6.938 15.581 6.98 15.425C7.022 15.263 7.205 15.059 7.529 14.813C7.595 14.765 7.622 14.729 7.61 14.705C7.598 14.675 7.565 14.66 7.511 14.66H7.241C7.055 14.852 6.866 15.032 6.674 15.2C6.482 15.368 6.275 15.539 6.053 15.713C5.861 15.863 5.696 15.938 5.558 15.938C5.426 15.938 5.309 15.869 5.207 15.731C5.165 15.659 5.144 15.59 5.144 15.524C5.144 15.458 5.156 15.395 5.18 15.335C5.21 15.269 5.246 15.212 5.288 15.164C5.336 15.11 5.387 15.065 5.441 15.029C5.525 14.969 5.609 14.909 5.693 14.849C5.777 14.789 5.858 14.726 5.936 14.66H5.918C5.714 14.66 5.573 14.627 5.495 14.561C5.417 14.495 5.378 14.387 5.378 14.237C5.378 14.075 5.417 13.964 5.495 13.904C5.573 13.844 5.714 13.814 5.918 13.814H6.836C6.974 13.658 7.13 13.475 7.304 13.265H5.657C5.465 13.265 5.33 13.229 5.252 13.157C5.174 13.085 5.135 12.98 5.135 12.842C5.135 12.698 5.174 12.59 5.252 12.518C5.33 12.446 5.465 12.41 5.657 12.41H6.764ZM13.739 18.431C13.547 18.713 13.256 18.71 12.866 18.422C12.638 18.236 12.425 18.041 12.227 17.837C12.035 17.633 11.846 17.396 11.66 17.126C11.426 17.414 11.183 17.663 10.931 17.873C10.685 18.083 10.418 18.275 10.13 18.449C9.86 18.605 9.647 18.671 9.491 18.647C9.335 18.629 9.218 18.536 9.14 18.368C9.068 18.2 9.071 18.047 9.149 17.909C9.227 17.777 9.356 17.663 9.536 17.567C9.866 17.369 10.157 17.159 10.409 16.937C10.661 16.709 10.889 16.451 11.093 16.163C10.781 15.545 10.535 14.825 10.355 14.003C10.343 14.015 10.337 14.024 10.337 14.03C10.205 14.27 10.079 14.408 9.959 14.444C9.845 14.48 9.722 14.456 9.59 14.372C9.452 14.282 9.383 14.171 9.383 14.039C9.389 13.907 9.446 13.73 9.554 13.508C9.806 12.986 9.995 12.467 10.121 11.951C10.253 11.435 10.34 10.961 10.382 10.529C10.4 10.277 10.448 10.109 10.526 10.025C10.61 9.941 10.73 9.905 10.886 9.917C11.06 9.929 11.174 9.983 11.228 10.079C11.282 10.169 11.294 10.343 11.264 10.601C11.252 10.667 11.243 10.736 11.237 10.808C11.231 10.88 11.222 10.952 11.21 11.024H13.28C13.46 11.024 13.586 11.066 13.658 11.15C13.73 11.234 13.766 11.363 13.766 11.537C13.766 11.867 13.583 12.032 13.217 12.032C13.175 12.536 13.124 12.995 13.064 13.409C13.004 13.817 12.935 14.189 12.857 14.525C12.779 14.861 12.689 15.164 12.587 15.434C12.491 15.704 12.383 15.956 12.263 16.19C12.467 16.496 12.668 16.76 12.866 16.982C13.07 17.204 13.286 17.411 13.514 17.603L13.505 17.594C13.709 17.762 13.826 17.903 13.856 18.017C13.886 18.131 13.844 18.272 13.73 18.44L13.739 18.431ZM11.714 15.083C11.846 14.723 11.957 14.291 12.047 13.787C12.143 13.277 12.221 12.695 12.281 12.041H11.012C10.994 12.125 10.979 12.191 10.967 12.239C10.961 12.281 10.955 12.323 10.949 12.365C10.943 12.407 10.952 12.506 10.976 12.662C11.006 12.812 11.051 13.01 11.111 13.256C11.177 13.502 11.243 13.73 11.309 13.94C11.375 14.15 11.441 14.348 11.507 14.534C11.579 14.72 11.648 14.903 11.714 15.083ZM7.943 12.41C8.009 12.314 8.072 12.218 8.132 12.122C8.198 12.026 8.261 11.927 8.321 11.825H7.754V12.41H7.943ZM15.098 11.771C14.888 11.801 14.732 11.786 14.63 11.726C14.534 11.666 14.477 11.558 14.459 11.402C14.423 11.09 14.591 10.901 14.963 10.835C15.305 10.781 15.62 10.712 15.908 10.628C16.196 10.538 16.448 10.439 16.664 10.331C16.832 10.247 16.985 10.223 17.123 10.259C17.261 10.295 17.36 10.394 17.42 10.556C17.486 10.724 17.483 10.862 17.411 10.97C17.339 11.072 17.201 11.159 16.997 11.231C16.919 11.261 16.835 11.294 16.745 11.33C16.661 11.36 16.577 11.39 16.493 11.42V12.662H17.186C17.354 12.662 17.471 12.707 17.537 12.797C17.603 12.881 17.636 12.998 17.636 13.148C17.636 13.286 17.6 13.4 17.528 13.49C17.456 13.574 17.342 13.616 17.186 13.616H16.529C16.625 13.754 16.712 13.88 16.79 13.994C16.874 14.102 16.952 14.207 17.024 14.309C17.096 14.411 17.165 14.513 17.231 14.615C17.297 14.717 17.36 14.831 17.42 14.957C17.456 15.017 17.486 15.083 17.51 15.155C17.54 15.221 17.555 15.29 17.555 15.362C17.555 15.428 17.54 15.494 17.51 15.56C17.486 15.626 17.438 15.686 17.366 15.74C17.228 15.842 17.093 15.869 16.961 15.821C16.829 15.767 16.736 15.683 16.682 15.569C16.634 15.503 16.598 15.437 16.574 15.371C16.55 15.305 16.523 15.242 16.493 15.182V18.152C16.493 18.344 16.454 18.476 16.376 18.548C16.298 18.62 16.181 18.656 16.025 18.656C15.881 18.656 15.773 18.62 15.701 18.548C15.629 18.476 15.593 18.344 15.593 18.152V15.614C15.557 15.704 15.521 15.785 15.485 15.857C15.455 15.923 15.425 15.989 15.395 16.055C15.365 16.121 15.329 16.19 15.287 16.262C15.251 16.328 15.209 16.406 15.161 16.496C15.059 16.664 14.942 16.778 14.81 16.838C14.678 16.892 14.534 16.868 14.378 16.766C14.24 16.67 14.171 16.544 14.171 16.388C14.177 16.226 14.228 16.067 14.324 15.911C14.546 15.533 14.753 15.164 14.945 14.804C15.137 14.444 15.302 14.048 15.44 13.616H14.801C14.645 13.616 14.525 13.574 14.441 13.49C14.363 13.4 14.324 13.286 14.324 13.148C14.324 12.998 14.36 12.881 14.432 12.797C14.51 12.707 14.633 12.662 14.801 12.662H15.593V11.681C15.497 11.705 15.407 11.723 15.323 11.735C15.239 11.747 15.164 11.759 15.098 11.771ZM19.589 17.351V16.352H18.248C18.062 16.352 17.936 16.313 17.87 16.235C17.81 16.151 17.78 16.031 17.78 15.875C17.78 15.695 17.81 15.569 17.87 15.497C17.936 15.425 18.062 15.389 18.248 15.389H19.589V14.561H18.068C17.876 14.561 17.75 14.519 17.69 14.435C17.63 14.345 17.6 14.219 17.6 14.057C17.6 13.877 17.63 13.748 17.69 13.67C17.75 13.586 17.876 13.544 18.068 13.544H22.208C22.418 13.544 22.55 13.586 22.604 13.67C22.658 13.748 22.685 13.877 22.685 14.057C22.685 14.219 22.658 14.345 22.604 14.435C22.55 14.519 22.418 14.561 22.208 14.561H20.615V15.389H22.055C22.247 15.389 22.373 15.425 22.433 15.497C22.493 15.569 22.523 15.695 22.523 15.875C22.523 16.031 22.493 16.151 22.433 16.235C22.373 16.313 22.247 16.352 22.055 16.352H20.615V17.351H22.379C22.565 17.351 22.688 17.393 22.748 17.477C22.814 17.561 22.847 17.687 22.847 17.855C22.847 18.011 22.814 18.131 22.748 18.215C22.688 18.305 22.565 18.35 22.379 18.35H17.717C17.531 18.35 17.405 18.305 17.339 18.215C17.279 18.131 17.249 18.011 17.249 17.855C17.249 17.687 17.279 17.561 17.339 17.477C17.405 17.393 17.531 17.351 17.717 17.351H19.589ZM22.388 12.005C22.388 12.365 22.316 12.623 22.172 12.779C22.034 12.929 21.788 13.004 21.434 13.004H18.86C18.5 13.004 18.251 12.929 18.113 12.779C17.981 12.623 17.915 12.365 17.915 12.005V11.231C17.915 10.871 17.981 10.616 18.113 10.466C18.251 10.31 18.5 10.232 18.86 10.232H21.434C21.794 10.232 22.043 10.31 22.181 10.466C22.319 10.616 22.388 10.871 22.388 11.231V12.005ZM21.443 11.438C21.443 11.354 21.428 11.294 21.398 11.258C21.368 11.222 21.302 11.204 21.2 11.204H19.058C18.974 11.204 18.917 11.222 18.887 11.258C18.857 11.288 18.842 11.348 18.842 11.438V11.816C18.842 11.918 18.854 11.984 18.878 12.014C18.908 12.044 18.968 12.059 19.058 12.059H21.2C21.302 12.059 21.368 12.044 21.398 12.014C21.428 11.978 21.443 11.912 21.443 11.816V11.438Z" fill="white"/>
</g>
<defs>
<clipPath id="clip0_942_334">
<rect width="28" height="28" fill="white"/>
</clipPath>
</defs>
</svg>
