<svg width="28" height="28" viewBox="0 0 28 28" fill="none" xmlns="http://www.w3.org/2000/svg">
<g clip-path="url(#clip0_934_664)">
<path d="M14 -6.11959e-07C21.732 -2.73984e-07 28 6.26801 28 14C28 21.732 21.732 28 14 28C6.26801 28 2.86476e-06 21.732 3.20274e-06 14C3.54071e-06 6.26801 6.26801 -9.49935e-07 14 -6.11959e-07Z" fill="#4CDA74"/>
<path d="M11.888 13.304C11.4027 13.304 10.9493 13.2747 10.528 13.216C10.112 13.1573 9.712 13.064 9.328 12.936C9.03467 13.0907 8.68 13.208 8.264 13.288C7.848 13.368 7.352 13.416 6.776 13.432C6.53067 13.4427 6.36267 13.4027 6.272 13.312C6.18133 13.2213 6.14133 13.096 6.152 12.936C6.16267 12.7493 6.22133 12.6293 6.328 12.576C6.43467 12.5227 6.61333 12.4907 6.864 12.48C7.104 12.4693 7.33067 12.456 7.544 12.44C7.75733 12.4293 7.94933 12.4053 8.12 12.368C7.98133 12.2773 7.83733 12.1707 7.688 12.048C7.53867 11.9307 7.4 11.8107 7.272 11.688C7.13333 11.56 7.04533 11.432 7.008 11.304C6.976 11.1707 6.992 11.048 7.056 10.936C6.896 10.8933 6.79467 10.8053 6.752 10.672C6.71467 10.5333 6.696 10.3253 6.696 10.048V8.32C6.696 8.13867 6.712 7.98667 6.744 7.864C6.78133 7.74133 6.84 7.64533 6.92 7.576C7.00533 7.50133 7.11467 7.45067 7.248 7.424C7.38667 7.392 7.55733 7.376 7.76 7.376H9.472V6.912H6.672C6.50133 6.912 6.38133 6.872 6.312 6.792C6.24267 6.712 6.208 6.61067 6.208 6.488C6.208 6.36533 6.24 6.264 6.304 6.184C6.368 6.09867 6.49067 6.056 6.672 6.056H13.344C13.5253 6.056 13.648 6.09867 13.712 6.184C13.776 6.26933 13.808 6.37333 13.808 6.496C13.808 6.61867 13.7733 6.72 13.704 6.8C13.6347 6.87467 13.5147 6.912 13.344 6.912H10.456V7.376H12.168C12.392 7.376 12.5733 7.38933 12.712 7.416C12.8507 7.44267 12.9573 7.49333 13.032 7.568C13.112 7.63733 13.1653 7.73333 13.192 7.856C13.2187 7.97333 13.232 8.128 13.232 8.32V10.056C13.232 10.2373 13.2187 10.3893 13.192 10.512C13.1653 10.6293 13.1147 10.7253 13.04 10.8C12.9653 10.8693 12.8587 10.92 12.72 10.952C12.5813 10.9787 12.3973 10.992 12.168 10.992H10.416C10.3893 11.2267 10.344 11.4507 10.28 11.664C10.2213 11.872 10.1467 12.0507 10.056 12.2C10.3173 12.2587 10.6 12.2987 10.904 12.32C11.208 12.3413 11.536 12.3493 11.888 12.344H13.328C13.5093 12.344 13.6453 12.3787 13.736 12.448C13.8267 12.5173 13.872 12.6427 13.872 12.824C13.872 12.9947 13.8267 13.1173 13.736 13.192C13.6453 13.2667 13.5093 13.304 13.328 13.304H11.888ZM10.456 9.528V10.136H12.128C12.1813 10.136 12.216 10.128 12.232 10.112C12.2533 10.096 12.264 10.056 12.264 9.992V9.528H10.456ZM7.696 9.992C7.696 10.0293 7.70133 10.064 7.712 10.096C7.728 10.1227 7.76267 10.136 7.816 10.136H9.472V9.528H7.696V9.992ZM10.456 8.216V8.784H12.264V8.36C12.264 8.30133 12.256 8.264 12.24 8.248C12.224 8.22667 12.1867 8.216 12.128 8.216H10.456ZM7.816 8.216C7.768 8.216 7.736 8.22667 7.72 8.248C7.704 8.264 7.696 8.30133 7.696 8.36V8.784H9.472V8.216H7.816ZM9.088 11.856C9.168 11.7653 9.24 11.64 9.304 11.48C9.37333 11.3147 9.42133 11.152 9.448 10.992H7.944C8.11467 11.152 8.304 11.3147 8.512 11.48C8.72 11.64 8.912 11.7653 9.088 11.856ZM14.512 9.248C14.3733 9.248 14.272 9.21867 14.208 9.16C14.144 9.096 14.112 8.98933 14.112 8.84C14.112 8.66933 14.1413 8.552 14.2 8.488C14.264 8.41867 14.368 8.384 14.512 8.384H15.104C15.104 8.37867 15.1013 8.37333 15.096 8.368C15.096 8.36267 15.096 8.35467 15.096 8.344C15.0747 8.17867 14.9947 7.944 14.856 7.64C14.7813 7.46933 14.7733 7.33867 14.832 7.248H14.736C14.5973 7.248 14.4933 7.21867 14.424 7.16C14.36 7.096 14.328 6.976 14.328 6.8C14.328 6.64533 14.36 6.53867 14.424 6.48C14.4933 6.416 14.5973 6.384 14.736 6.384H15.928C15.8427 6.21333 15.8213 6.07733 15.864 5.976C15.9067 5.87467 15.9733 5.80267 16.064 5.76C16.3573 5.63733 16.5627 5.71467 16.68 5.992C16.7067 6.04533 16.7333 6.10667 16.76 6.176C16.792 6.24 16.8213 6.30933 16.848 6.384H17.728C17.8667 6.384 17.9787 6.41867 18.064 6.488C18.1547 6.55733 18.2 6.66933 18.2 6.824C18.2 6.952 18.1653 7.05067 18.096 7.12C18.032 7.184 17.9467 7.224 17.84 7.24C17.888 7.32533 17.8933 7.44267 17.856 7.592C17.8187 7.74667 17.7813 7.88533 17.744 8.008C17.7067 8.12533 17.6587 8.25067 17.6 8.384H18.008C18.2747 8.384 18.408 8.53067 18.408 8.824C18.408 9.10667 18.2747 9.248 18.008 9.248H16.72V9.736H17.72C17.8587 9.736 17.9707 9.77067 18.056 9.84C18.1413 9.90933 18.184 10.0213 18.184 10.176C18.184 10.3253 18.1413 10.4347 18.056 10.504C17.9707 10.568 17.8587 10.6 17.72 10.6H16.72V12.704C16.72 12.912 16.6773 13.08 16.592 13.208C16.512 13.336 16.3547 13.4053 16.12 13.416C15.816 13.432 15.56 13.4053 15.352 13.336C15.1813 13.2773 15.0747 13.2027 15.032 13.112C14.9947 13.0213 15.0027 12.8987 15.056 12.744C15.1413 12.4987 15.3227 12.4267 15.6 12.528C15.728 12.576 15.808 12.5893 15.84 12.568C15.872 12.5467 15.888 12.4747 15.888 12.352V10.6H14.76C14.6213 10.6 14.5093 10.5707 14.424 10.512C14.344 10.4533 14.304 10.3467 14.304 10.192C14.304 10.0267 14.344 9.90933 14.424 9.84C14.5093 9.77067 14.6213 9.736 14.76 9.736H15.888V9.248H14.512ZM19.4 8.4H21.376C21.5467 8.4 21.6613 8.43467 21.72 8.504C21.784 8.57333 21.816 8.688 21.816 8.848C21.816 9.01333 21.784 9.13067 21.72 9.2C21.6613 9.26933 21.5467 9.304 21.376 9.304H20.992V12.968C20.992 13.1333 20.952 13.2507 20.872 13.32C20.792 13.3893 20.68 13.424 20.536 13.424C20.376 13.424 20.2613 13.3893 20.192 13.32C20.1227 13.2507 20.088 13.1333 20.088 12.968V9.304H19.4C19.3947 9.83733 19.3787 10.288 19.352 10.656C19.3307 11.024 19.296 11.3413 19.248 11.608C19.2 11.8747 19.136 12.112 19.056 12.32C18.9813 12.528 18.8907 12.7387 18.784 12.952C18.6133 13.2987 18.3813 13.4 18.088 13.256C17.9547 13.1813 17.8773 13.0853 17.856 12.968C17.8347 12.8507 17.8693 12.7013 17.96 12.52C18.0613 12.3227 18.1467 12.1253 18.216 11.928C18.2853 11.7253 18.3387 11.4987 18.376 11.248C18.4187 10.992 18.448 10.6987 18.464 10.368C18.4853 10.0373 18.496 9.64267 18.496 9.184V7.352C18.496 7.192 18.5067 7.05867 18.528 6.952C18.5493 6.84533 18.5893 6.76 18.648 6.696C18.712 6.62667 18.8 6.57333 18.912 6.536C19.0293 6.49867 19.1813 6.46667 19.368 6.44C19.496 6.41867 19.6347 6.392 19.784 6.36C19.9333 6.328 20.0773 6.29333 20.216 6.256C20.36 6.21867 20.4933 6.18133 20.616 6.144C20.744 6.10133 20.848 6.06133 20.928 6.024C21.0933 5.94933 21.24 5.928 21.368 5.96C21.5013 5.992 21.5973 6.09333 21.656 6.264C21.7147 6.424 21.712 6.55733 21.648 6.664C21.5893 6.76533 21.4613 6.85067 21.264 6.92C21.1253 6.968 20.992 7.01333 20.864 7.056C20.7413 7.09333 20.6187 7.128 20.496 7.16C20.3733 7.192 20.2453 7.22133 20.112 7.248C19.9787 7.27467 19.8347 7.30133 19.68 7.328C19.5573 7.34933 19.48 7.37867 19.448 7.416C19.416 7.448 19.4 7.52 19.4 7.632V8.4ZM15.464 10.776C15.72 10.8827 15.776 11.0987 15.632 11.424C15.5787 11.5467 15.528 11.6533 15.48 11.744C15.4373 11.8347 15.392 11.92 15.344 12C15.296 12.0747 15.2453 12.1493 15.192 12.224C15.144 12.304 15.088 12.3893 15.024 12.48C14.896 12.656 14.7813 12.7573 14.68 12.784C14.5787 12.816 14.4693 12.7867 14.352 12.696C14.2933 12.648 14.248 12.6027 14.216 12.56C14.184 12.5173 14.1653 12.4693 14.16 12.416C14.1547 12.368 14.1653 12.312 14.192 12.248C14.2187 12.184 14.2613 12.1067 14.32 12.016C14.4373 11.8347 14.536 11.6747 14.616 11.536C14.696 11.392 14.768 11.2533 14.832 11.12C14.9227 10.928 15.016 10.808 15.112 10.76C15.208 10.712 15.3253 10.7173 15.464 10.776ZM17.696 12.56C17.5573 12.6027 17.4533 12.6 17.384 12.552C17.32 12.5093 17.2613 12.3813 17.208 12.168C17.1653 12.0187 17.1227 11.8907 17.08 11.784C17.0427 11.672 16.992 11.5467 16.928 11.408C16.848 11.232 16.8187 11.1013 16.84 11.016C16.8613 10.9253 16.9413 10.8373 17.08 10.752C17.1707 10.6933 17.264 10.6827 17.36 10.72C17.4613 10.7573 17.5493 10.8533 17.624 11.008C17.6987 11.1787 17.768 11.3413 17.832 11.496C17.896 11.6453 17.944 11.792 17.976 11.936C18.0187 12.1013 18.024 12.2347 17.992 12.336C17.96 12.4373 17.864 12.512 17.704 12.56H17.696ZM15.88 8.12C15.8907 8.17867 15.8987 8.22933 15.904 8.272C15.9093 8.30933 15.9147 8.34667 15.92 8.384H16.76C16.7653 8.34133 16.7733 8.29867 16.784 8.256C16.8 8.21333 16.8213 8.16533 16.848 8.112C16.9387 7.92533 17.0187 7.68 17.088 7.376C17.0987 7.328 17.1147 7.28533 17.136 7.248H15.568C15.5787 7.27467 15.5893 7.304 15.6 7.336C15.616 7.36267 15.632 7.392 15.648 7.424C15.7013 7.552 15.744 7.66933 15.776 7.776C15.8133 7.88267 15.848 7.99733 15.88 8.12ZM12.232 19.376V20.808C12.232 20.9307 12.2347 21.0267 12.24 21.096C12.2507 21.1653 12.2667 21.2187 12.288 21.256C12.3093 21.2933 12.3413 21.3147 12.384 21.32C12.4267 21.3307 12.48 21.336 12.544 21.336C12.6133 21.336 12.6693 21.328 12.712 21.312C12.7547 21.296 12.7893 21.2587 12.816 21.2C12.8427 21.1467 12.8613 21.0693 12.872 20.968C12.888 20.8613 12.8987 20.72 12.904 20.544C12.9147 20.368 12.952 20.248 13.016 20.184C13.0853 20.1147 13.2027 20.08 13.368 20.08C13.6453 20.08 13.7893 20.2453 13.8 20.576C13.7787 20.9493 13.7493 21.248 13.712 21.472C13.6747 21.696 13.6107 21.8693 13.52 21.992C13.4347 22.1147 13.3147 22.1947 13.16 22.232C13.0053 22.2747 12.8 22.296 12.544 22.296C12.272 22.296 12.0507 22.2747 11.88 22.232C11.7147 22.1947 11.5867 22.1227 11.496 22.016C11.4053 21.9147 11.344 21.7733 11.312 21.592C11.28 21.4107 11.264 21.1787 11.264 20.896V19.376H10.696C10.6693 20.0427 10.5413 20.6107 10.312 21.08C10.0827 21.5547 9.72267 21.9627 9.232 22.304C8.85333 22.5653 8.57867 22.5093 8.408 22.136C8.34933 22.008 8.35467 21.8907 8.424 21.784C8.49333 21.6773 8.592 21.584 8.72 21.504C8.90133 21.392 9.05333 21.2693 9.176 21.136C9.304 21.0027 9.41067 20.8533 9.496 20.688C9.58133 20.5173 9.648 20.3253 9.696 20.112C9.744 19.8987 9.77867 19.6533 9.8 19.376H9.64C9.45867 19.376 9.312 19.3627 9.2 19.336C9.088 19.3093 9 19.2613 8.936 19.192C8.872 19.1227 8.82933 19.0293 8.808 18.912C8.78667 18.7947 8.776 18.6453 8.776 18.464V17.008C8.776 16.832 8.784 16.688 8.8 16.576C8.82133 16.464 8.85867 16.376 8.912 16.312C8.96533 16.2427 9.03733 16.1947 9.128 16.168C9.224 16.136 9.34933 16.1173 9.504 16.112C9.44533 16.0213 9.38133 15.9333 9.312 15.848C9.24267 15.7573 9.17333 15.672 9.104 15.592C8.976 15.448 8.92 15.32 8.936 15.208C8.95733 15.0907 9.01067 14.992 9.096 14.912C9.21333 14.8 9.336 14.7493 9.464 14.76C9.592 14.7653 9.71733 14.84 9.84 14.984C9.91467 15.0853 9.99733 15.1947 10.088 15.312C10.1787 15.4293 10.304 15.6 10.464 15.824C10.5333 15.9307 10.5813 16.0267 10.608 16.112H11.312C11.4347 15.9467 11.544 15.7813 11.64 15.616C11.736 15.4453 11.8293 15.2747 11.92 15.104C12.0267 14.9173 12.1333 14.8053 12.24 14.768C12.3467 14.7253 12.4773 14.7467 12.632 14.832C12.7867 14.9227 12.872 15.0187 12.888 15.12C12.9093 15.2213 12.8747 15.36 12.784 15.536C12.736 15.6267 12.6827 15.7227 12.624 15.824C12.5653 15.92 12.5013 16.016 12.432 16.112H12.472C12.6427 16.112 12.784 16.1253 12.896 16.152C13.0133 16.1733 13.104 16.216 13.168 16.28C13.2373 16.344 13.2853 16.4347 13.312 16.552C13.3387 16.6693 13.352 16.8213 13.352 17.008V18.464C13.352 18.64 13.3413 18.7867 13.32 18.904C13.2987 19.0213 13.256 19.1147 13.192 19.184C13.128 19.2533 13.0373 19.304 12.92 19.336C12.808 19.3627 12.6587 19.376 12.472 19.376H12.232ZM8.832 20.224C9.05067 20.4747 9.048 20.7253 8.824 20.976C8.73333 21.0773 8.648 21.168 8.568 21.248C8.488 21.328 8.41067 21.4027 8.336 21.472C8.26133 21.5467 8.184 21.6187 8.104 21.688C8.024 21.7573 7.93867 21.8293 7.848 21.904C7.73067 21.9947 7.61067 22.056 7.488 22.088C7.36533 22.1253 7.256 22.1227 7.16 22.08C7.064 22.0373 6.98933 21.9467 6.936 21.808C6.88267 21.6747 6.86667 21.4827 6.888 21.232L7.168 18.136C7.17333 18.0773 7.16267 18.0293 7.136 17.992C7.11467 17.9493 7.08 17.9307 7.032 17.936L6.568 17.984C6.38133 18 6.25333 17.976 6.184 17.912C6.12 17.8427 6.088 17.704 6.088 17.496C6.088 17.3253 6.11733 17.2027 6.176 17.128C6.24 17.0533 6.352 17.0107 6.512 17L7.32 16.936C7.59733 16.9147 7.81333 16.968 7.968 17.096C8.12267 17.2187 8.184 17.448 8.152 17.784L7.912 20.376C7.90133 20.4827 7.90933 20.5387 7.936 20.544C7.968 20.544 8.02933 20.4853 8.12 20.368C8.25867 20.1813 8.384 20.08 8.496 20.064C8.608 20.048 8.72 20.1013 8.832 20.224ZM12.408 17.136C12.408 17.056 12.376 17.016 12.312 17.016H9.792C9.75467 17.016 9.73067 17.0267 9.72 17.048C9.71467 17.064 9.712 17.0933 9.712 17.136V18.328C9.712 18.3707 9.71467 18.4053 9.72 18.432C9.73067 18.4533 9.75467 18.464 9.792 18.464H12.312C12.376 18.464 12.408 18.4187 12.408 18.328V17.136ZM7.928 15.816C8.17333 16.1093 8.184 16.3653 7.96 16.584C7.84267 16.7013 7.72267 16.752 7.6 16.736C7.48267 16.72 7.35733 16.6267 7.224 16.456C7.16533 16.3813 7.112 16.3173 7.064 16.264C7.016 16.2053 6.968 16.1493 6.92 16.096C6.872 16.0373 6.81867 15.9787 6.76 15.92C6.70667 15.8613 6.64267 15.792 6.568 15.712C6.44533 15.5787 6.376 15.4587 6.36 15.352C6.34933 15.24 6.39733 15.12 6.504 14.992C6.70133 14.7573 6.93867 14.7707 7.216 15.032C7.31733 15.128 7.42667 15.2453 7.544 15.384C7.66667 15.5173 7.79467 15.6613 7.928 15.816ZM19.72 21.248C19.9013 21.312 20.0453 21.3547 20.152 21.376C20.2587 21.3973 20.3387 21.4 20.392 21.384C20.4507 21.3733 20.488 21.344 20.504 21.296C20.52 21.2533 20.528 21.2 20.528 21.136V19.936H18.672C18.624 20.192 18.5627 20.4267 18.488 20.64C18.4133 20.848 18.3227 21.0427 18.216 21.224C18.1093 21.4053 17.9867 21.576 17.848 21.736C17.7093 21.896 17.552 22.0533 17.376 22.208C17.3067 22.272 17.232 22.3227 17.152 22.36C17.072 22.4027 16.992 22.4293 16.912 22.44C16.832 22.4507 16.7547 22.44 16.68 22.408C16.6107 22.3813 16.5493 22.328 16.496 22.248C16.4107 22.1147 16.3787 21.9867 16.4 21.864C16.4267 21.7467 16.5147 21.6293 16.664 21.512C16.8773 21.3467 17.0587 21.1733 17.208 20.992C17.3573 20.8053 17.4773 20.5947 17.568 20.36C17.6587 20.1253 17.7253 19.8587 17.768 19.56C17.8107 19.256 17.832 18.904 17.832 18.504V15.92C17.832 15.7387 17.8453 15.592 17.872 15.48C17.8987 15.3627 17.9467 15.272 18.016 15.208C18.0853 15.144 18.1733 15.1013 18.28 15.08C18.392 15.0587 18.5333 15.048 18.704 15.048H20.616C20.7813 15.048 20.92 15.0613 21.032 15.088C21.144 15.1093 21.232 15.152 21.296 15.216C21.3653 15.28 21.4133 15.3707 21.44 15.488C21.4667 15.6053 21.48 15.7547 21.48 15.936V21.176C21.48 21.5707 21.4 21.8507 21.24 22.016C21.08 22.1813 20.872 22.2773 20.616 22.304C20.5147 22.3147 20.4187 22.32 20.328 22.32C20.2373 22.3253 20.144 22.32 20.048 22.304C19.952 22.2933 19.848 22.2747 19.736 22.248C19.624 22.2213 19.5013 22.184 19.368 22.136C19.1973 22.072 19.0907 21.9867 19.048 21.88C19.0053 21.7787 19.0133 21.656 19.072 21.512C19.136 21.352 19.2213 21.2533 19.328 21.216C19.4347 21.1787 19.5653 21.1893 19.72 21.248ZM17.096 20.224C17.096 20.5173 17.0427 20.7307 16.936 20.864C16.8293 20.992 16.6347 21.056 16.352 21.056H15.104C14.8213 21.056 14.6267 20.992 14.52 20.864C14.4187 20.7307 14.368 20.5173 14.368 20.224V16.08C14.368 15.776 14.4187 15.5627 14.52 15.44C14.6267 15.312 14.8213 15.248 15.104 15.248H16.352C16.6347 15.248 16.8293 15.312 16.936 15.44C17.0427 15.5627 17.096 15.776 17.096 16.08V20.224ZM18.784 18.52C18.784 18.6107 18.7813 18.6987 18.776 18.784C18.776 18.864 18.7733 18.9413 18.768 19.016H20.528V17.92H18.784V18.52ZM18.784 16.992H20.528V16.272C20.528 16.1493 20.512 16.072 20.48 16.04C20.4533 16.0027 20.376 15.984 20.248 15.984H19.056C18.9333 15.984 18.856 15.9973 18.824 16.024C18.7973 16.0507 18.784 16.1253 18.784 16.248V16.992ZM15.248 20C15.248 20.0587 15.256 20.096 15.272 20.112C15.288 20.1227 15.32 20.128 15.368 20.128H16.112C16.1547 20.128 16.1813 20.1227 16.192 20.112C16.208 20.096 16.216 20.0613 16.216 20.008V18.488H15.248V20ZM16.216 16.312C16.216 16.2533 16.208 16.216 16.192 16.2C16.1813 16.184 16.1467 16.176 16.088 16.176H15.368C15.3253 16.176 15.2933 16.184 15.272 16.2C15.256 16.216 15.248 16.2533 15.248 16.312V17.536H16.216V16.312Z" fill="white"/>
</g>
<defs>
<clipPath id="clip0_934_664">
<rect width="28" height="28" fill="white"/>
</clipPath>
</defs>
</svg>
