<svg width="28" height="28" viewBox="0 0 28 28" fill="none" xmlns="http://www.w3.org/2000/svg">
<rect width="28" height="28" rx="14" fill="#4299FF"/>
<path d="M7.556 16.224L7.028 17.604C6.956 17.796 6.856 17.948 6.728 18.06C6.6 18.18 6.412 18.24 6.164 18.24C5.916 18.24 5.716 18.172 5.564 18.036C5.42 17.9 5.404 17.668 5.516 17.34L7.988 10.128C8.028 10 8.112 9.888 8.24 9.792C8.376 9.688 8.556 9.636 8.78 9.636C9.004 9.636 9.18 9.688 9.308 9.792C9.444 9.888 9.532 10 9.572 10.128L12.068 17.364C12.164 17.668 12.136 17.888 11.984 18.024C11.84 18.168 11.644 18.24 11.396 18.24C11.148 18.248 10.964 18.192 10.844 18.072C10.724 17.96 10.632 17.824 10.568 17.664L9.992 16.224H7.556ZM9.704 14.868L8.78 11.892L7.856 14.868H9.704ZM13.1394 10.548C13.1394 10.38 13.1514 10.244 13.1754 10.14C13.2074 10.036 13.2634 9.956 13.3434 9.9C13.4234 9.844 13.5354 9.808 13.6794 9.792C13.8314 9.768 14.0274 9.756 14.2674 9.756H15.9594C16.4874 9.756 16.9314 9.8 17.2914 9.888C17.6594 9.976 17.9594 10.124 18.1914 10.332C18.4234 10.54 18.5914 10.816 18.6954 11.16C18.7994 11.496 18.8514 11.912 18.8514 12.408C18.8514 12.904 18.7954 13.328 18.6834 13.68C18.5714 14.032 18.3994 14.32 18.1674 14.544C17.9354 14.768 17.6354 14.932 17.2674 15.036C16.9074 15.14 16.4714 15.192 15.9594 15.192H14.6994V17.616C14.6994 17.776 14.6394 17.92 14.5194 18.048C14.3994 18.176 14.1994 18.24 13.9194 18.24C13.6394 18.24 13.4394 18.172 13.3194 18.036C13.1994 17.9 13.1394 17.76 13.1394 17.616V10.548ZM14.6994 13.848H15.9594C16.4714 13.848 16.8194 13.736 17.0034 13.512C17.1954 13.288 17.2914 12.924 17.2914 12.42C17.2914 12.156 17.2554 11.94 17.1834 11.772C17.1194 11.604 17.0274 11.472 16.9074 11.376C16.7874 11.272 16.6474 11.204 16.4874 11.172C16.3274 11.132 16.1514 11.112 15.9594 11.112H14.6994V13.848ZM21.3467 17.472C21.3467 17.728 21.2827 17.92 21.1547 18.048C21.0347 18.176 20.8347 18.24 20.5547 18.24C20.2747 18.24 20.0747 18.176 19.9547 18.048C19.8427 17.92 19.7867 17.732 19.7867 17.484V10.404C19.7867 9.892 20.0427 9.636 20.5547 9.636C20.8107 9.636 21.0067 9.692 21.1427 9.804C21.2787 9.916 21.3467 10.112 21.3467 10.392V17.472Z" fill="white"/>
</svg>
