<svg width="28" height="28" viewBox="0 0 28 28" fill="none" xmlns="http://www.w3.org/2000/svg">
<g clip-path="url(#clip0_934_661)">
<path d="M14 -6.11959e-07C21.732 -2.73984e-07 28 6.26801 28 14C28 21.732 21.732 28 14 28C6.26801 28 2.86476e-06 21.732 3.20274e-06 14C3.54071e-06 6.26801 6.26801 -9.49935e-07 14 -6.11959e-07Z" fill="#FF833D"/>
<path d="M9.616 6.584C9.60533 6.552 9.592 6.52 9.576 6.488C9.56 6.456 9.54667 6.424 9.536 6.392C9.42933 6.056 9.54133 5.84267 9.872 5.752C10.0107 5.70933 10.1387 5.72 10.256 5.784C10.3787 5.84267 10.4693 5.94933 10.528 6.104C10.5813 6.248 10.6347 6.408 10.688 6.584H13.296C13.4667 6.584 13.5867 6.62933 13.656 6.72C13.7253 6.80533 13.76 6.91733 13.76 7.056C13.76 7.21067 13.7253 7.33067 13.656 7.416C13.5867 7.496 13.4667 7.536 13.296 7.536H12.264C12.3227 7.59467 12.3547 7.66933 12.36 7.76C12.3653 7.84533 12.3493 7.93867 12.312 8.04C12.232 8.264 12.136 8.512 12.024 8.784H13.376C13.5467 8.784 13.6667 8.824 13.736 8.904C13.8053 8.97867 13.84 9.096 13.84 9.256C13.84 9.40533 13.8053 9.52267 13.736 9.608C13.6667 9.688 13.5467 9.728 13.376 9.728H8.168C8.10933 9.728 8.06667 9.73867 8.04 9.76C8.01867 9.776 8.008 9.81867 8.008 9.888V10.504C8.008 11.0853 7.944 11.5893 7.816 12.016C7.688 12.448 7.504 12.808 7.264 13.096C7.08267 13.3147 6.93067 13.4347 6.808 13.456C6.68533 13.4773 6.55467 13.4347 6.416 13.328C6.28267 13.232 6.216 13.1093 6.216 12.96C6.216 12.816 6.28 12.6667 6.408 12.512C6.632 12.2453 6.78933 11.9547 6.88 11.64C6.976 11.32 7.024 10.928 7.024 10.464V9.672C7.024 9.352 7.088 9.12533 7.216 8.992C7.344 8.85333 7.56267 8.784 7.872 8.784H8.536C8.49333 8.672 8.45067 8.568 8.408 8.472C8.37067 8.376 8.33067 8.29067 8.288 8.216C8.112 7.928 8.128 7.70133 8.336 7.536H6.984C6.81333 7.536 6.69333 7.496 6.624 7.416C6.55467 7.33067 6.52 7.21067 6.52 7.056C6.52 6.91733 6.55467 6.80533 6.624 6.72C6.69333 6.62933 6.81333 6.584 6.984 6.584H9.616ZM9.112 7.72C9.176 7.864 9.24267 8.024 9.312 8.2C9.38133 8.376 9.456 8.57067 9.536 8.784H11C11.0853 8.58667 11.1573 8.41067 11.216 8.256C11.2747 8.10133 11.3307 7.952 11.384 7.808C11.4213 7.69067 11.4693 7.6 11.528 7.536H8.984C9.01067 7.56267 9.032 7.592 9.048 7.624C9.06933 7.65067 9.09067 7.68267 9.112 7.72ZM20.76 8.104C20.76 8.27467 20.7493 8.416 20.728 8.528C20.7067 8.64 20.6613 8.73067 20.592 8.8C20.528 8.86933 20.4347 8.91733 20.312 8.944C20.1947 8.97067 20.0373 8.984 19.84 8.984H16.136C15.9547 8.984 15.8053 8.97333 15.688 8.952C15.5707 8.93067 15.4773 8.888 15.408 8.824C15.3387 8.76 15.2907 8.672 15.264 8.56C15.2373 8.44267 15.224 8.29067 15.224 8.104V7.088C15.224 6.90133 15.2373 6.74933 15.264 6.632C15.2907 6.51467 15.3387 6.424 15.408 6.36C15.4773 6.296 15.5707 6.25333 15.688 6.232C15.8053 6.21067 15.9547 6.2 16.136 6.2H19.84C20.0213 6.2 20.1707 6.21333 20.288 6.24C20.4107 6.26133 20.5067 6.304 20.576 6.368C20.6453 6.432 20.6933 6.52267 20.72 6.64C20.7467 6.75733 20.76 6.90667 20.76 7.088V8.104ZM21.512 12.368C21.512 12.528 21.5013 12.6613 21.48 12.768C21.4587 12.8747 21.4133 12.9573 21.344 13.016C21.28 13.08 21.1867 13.1253 21.064 13.152C20.9467 13.1787 20.7893 13.192 20.592 13.192H19.016C18.824 13.192 18.6667 13.1813 18.544 13.16C18.4267 13.1387 18.3333 13.096 18.264 13.032C18.2 12.9733 18.1573 12.8907 18.136 12.784C18.1147 12.6827 18.104 12.5493 18.104 12.384V10.432C18.104 10.2507 18.12 10.1067 18.152 10C18.184 9.89333 18.2347 9.81333 18.304 9.76C18.3787 9.70133 18.472 9.664 18.584 9.648C18.7013 9.632 18.8453 9.624 19.016 9.624H20.592C20.7893 9.624 20.9493 9.64 21.072 9.672C21.1947 9.69867 21.288 9.744 21.352 9.808C21.416 9.872 21.4587 9.95733 21.48 10.064C21.5013 10.1707 21.512 10.2987 21.512 10.448V12.368ZM17.648 12.384C17.648 12.5547 17.6347 12.6907 17.608 12.792C17.5867 12.8987 17.5413 12.9813 17.472 13.04C17.4027 13.0987 17.3067 13.1387 17.184 13.16C17.0667 13.1813 16.912 13.192 16.72 13.192H15.368C15.176 13.192 15.0187 13.1813 14.896 13.16C14.7787 13.1387 14.6853 13.096 14.616 13.032C14.552 12.9733 14.5093 12.8907 14.488 12.784C14.4667 12.6773 14.456 12.5387 14.456 12.368V10.384C14.456 10.208 14.4693 10.0667 14.496 9.96C14.528 9.85333 14.5787 9.77067 14.648 9.712C14.7173 9.648 14.8107 9.608 14.928 9.592C15.0453 9.57067 15.192 9.56 15.368 9.56H16.72C16.912 9.56 17.0667 9.57067 17.184 9.592C17.3067 9.61333 17.4 9.65333 17.464 9.712C17.5333 9.77067 17.5813 9.85333 17.608 9.96C17.6347 10.0667 17.648 10.2027 17.648 10.368V12.384ZM19.784 7.224C19.784 7.13867 19.728 7.096 19.616 7.096H16.336C16.2293 7.096 16.176 7.13867 16.176 7.224V7.96C16.176 8.00267 16.1867 8.03467 16.208 8.056C16.2293 8.07733 16.272 8.088 16.336 8.088H19.616C19.728 8.088 19.784 8.04533 19.784 7.96V7.224ZM16.704 10.592C16.704 10.5067 16.648 10.464 16.536 10.464H15.552C15.4453 10.464 15.392 10.5067 15.392 10.592V12.144C15.392 12.1867 15.4027 12.2187 15.424 12.24C15.4453 12.2613 15.488 12.272 15.552 12.272H16.536C16.648 12.272 16.704 12.2293 16.704 12.144V10.592ZM20.568 10.664C20.568 10.5787 20.512 10.536 20.4 10.536H19.2C19.0933 10.536 19.04 10.5787 19.04 10.664V12.136C19.04 12.1787 19.0507 12.2107 19.072 12.232C19.0933 12.2533 19.136 12.264 19.2 12.264H20.4C20.512 12.264 20.568 12.2213 20.568 12.136V10.664ZM9.648 17.096C9.60533 16.9733 9.55733 16.8507 9.504 16.728C9.456 16.6053 9.40533 16.4827 9.352 16.36C8.63733 16.408 7.86667 16.432 7.04 16.432C6.83733 16.432 6.69333 16.384 6.608 16.288C6.52267 16.192 6.48533 16.064 6.496 15.904C6.512 15.7493 6.56533 15.64 6.656 15.576C6.74667 15.5067 6.904 15.472 7.128 15.472C7.66133 15.472 8.16267 15.464 8.632 15.448C9.10667 15.4267 9.55467 15.3973 9.976 15.36C10.4027 15.3173 10.808 15.2667 11.192 15.208C11.576 15.144 11.9493 15.0667 12.312 14.976C12.4827 14.944 12.632 14.9413 12.76 14.968C12.888 14.9947 12.976 15.1013 13.024 15.288C13.072 15.464 13.0533 15.6 12.968 15.696C12.888 15.792 12.7547 15.8613 12.568 15.904C12.232 15.9787 11.8827 16.048 11.52 16.112C11.1573 16.176 10.776 16.2293 10.376 16.272C10.4293 16.4107 10.48 16.5493 10.528 16.688C10.576 16.8267 10.6213 16.9627 10.664 17.096H12.88C13.0613 17.096 13.184 17.144 13.248 17.24C13.312 17.3307 13.344 17.4427 13.344 17.576C13.344 17.72 13.312 17.8373 13.248 17.928C13.184 18.0133 13.0613 18.056 12.88 18.056H10.92C10.9467 18.1947 10.9707 18.336 10.992 18.48C11.0187 18.624 11.0427 18.7653 11.064 18.904H13.32C13.5013 18.904 13.624 18.9467 13.688 19.032C13.752 19.1173 13.784 19.2373 13.784 19.392C13.784 19.5467 13.752 19.6667 13.688 19.752C13.624 19.8373 13.5013 19.88 13.32 19.88H11.128C11.1227 20.0187 11.112 20.16 11.096 20.304C11.0853 20.448 11.0693 20.5893 11.048 20.728C11.0267 20.8613 11 20.984 10.968 21.096C10.9413 21.2133 10.9093 21.312 10.872 21.392C10.7227 21.712 10.528 21.9573 10.288 22.128C10.048 22.2987 9.74933 22.384 9.392 22.384C8.99733 22.384 8.536 22.2613 8.008 22.016C7.82133 21.9253 7.70933 21.8267 7.672 21.72C7.63467 21.6187 7.64533 21.4987 7.704 21.36C7.77867 21.2053 7.872 21.1093 7.984 21.072C8.096 21.04 8.26133 21.072 8.48 21.168C8.832 21.3227 9.128 21.4 9.368 21.4C9.512 21.4 9.632 21.3653 9.728 21.296C9.824 21.232 9.90133 21.1387 9.96 21.016C10.0133 20.92 10.056 20.7627 10.088 20.544C10.1253 20.3253 10.1467 20.104 10.152 19.88H6.632C6.45067 19.88 6.328 19.8373 6.264 19.752C6.2 19.6667 6.168 19.5467 6.168 19.392C6.168 19.2373 6.2 19.1173 6.264 19.032C6.328 18.9467 6.45067 18.904 6.632 18.904H10.08C10.064 18.76 10.0427 18.6187 10.016 18.48C9.98933 18.336 9.96 18.1947 9.928 18.056H7.072C6.89067 18.056 6.768 18.0133 6.704 17.928C6.64 17.8373 6.608 17.72 6.608 17.576C6.608 17.4427 6.64 17.3307 6.704 17.24C6.768 17.144 6.89067 17.096 7.072 17.096H9.648ZM21.024 18.904V21.32C21.024 21.6987 20.96 21.9707 20.832 22.136C20.7093 22.3067 20.4853 22.3893 20.16 22.384C20.0213 22.384 19.8853 22.3707 19.752 22.344C19.6187 22.3227 19.4453 22.2667 19.232 22.176C19.072 22.1013 18.9707 22.0133 18.928 21.912C18.8907 21.816 18.904 21.6907 18.968 21.536C19.0267 21.3813 19.1067 21.2907 19.208 21.264C19.3093 21.2373 19.4453 21.2613 19.616 21.336C19.808 21.4213 19.936 21.456 20 21.44C20.0693 21.424 20.104 21.3707 20.104 21.28V18.904H19.12C19.12 19.2987 19.1093 19.6453 19.088 19.944C19.0667 20.2373 19.032 20.5067 18.984 20.752C18.9413 20.9973 18.8827 21.224 18.808 21.432C18.7333 21.64 18.64 21.8533 18.528 22.072C18.4373 22.2533 18.32 22.3653 18.176 22.408C18.0373 22.456 17.904 22.4427 17.776 22.368C17.6267 22.2773 17.5573 22.1707 17.568 22.048C17.5787 21.9253 17.6373 21.776 17.744 21.6C17.824 21.4613 17.8933 21.3093 17.952 21.144C18.0107 20.984 18.056 20.7973 18.088 20.584C18.1253 20.3707 18.152 20.128 18.168 19.856C18.1893 19.584 18.2 19.2667 18.2 18.904H17.536V21.304C17.536 21.5973 17.4613 21.832 17.312 22.008C17.1627 22.184 16.96 22.272 16.704 22.272C16.592 22.272 16.4613 22.2507 16.312 22.208C16.168 22.1653 16.0133 22.0987 15.848 22.008C15.704 21.928 15.6133 21.8213 15.576 21.688C15.544 21.56 15.5627 21.4347 15.632 21.312C15.7813 21.0613 15.984 21.0187 16.24 21.184C16.4213 21.2907 16.5387 21.3333 16.592 21.312C16.6453 21.2907 16.672 21.2267 16.672 21.12L16.664 18.904H15.784C15.7733 19.2987 15.752 19.6507 15.72 19.96C15.6933 20.264 15.6533 20.5413 15.6 20.792C15.5467 21.0427 15.48 21.2693 15.4 21.472C15.32 21.68 15.2267 21.88 15.12 22.072C15.04 22.2267 14.9387 22.3307 14.816 22.384C14.6987 22.4373 14.576 22.424 14.448 22.344C14.32 22.264 14.256 22.16 14.256 22.032C14.256 21.904 14.3013 21.7573 14.392 21.592C14.4827 21.432 14.56 21.2613 14.624 21.08C14.688 20.904 14.7413 20.7093 14.784 20.496C14.8267 20.2773 14.8587 20.0373 14.88 19.776C14.9013 19.5147 14.9147 19.224 14.92 18.904H14.56C14.384 18.904 14.264 18.856 14.2 18.76C14.136 18.664 14.104 18.5547 14.104 18.432C14.104 18.3093 14.136 18.2053 14.2 18.12C14.264 18.0293 14.384 17.984 14.56 17.984H14.928V15.92C14.928 15.744 14.9387 15.6 14.96 15.488C14.9867 15.376 15.0293 15.288 15.088 15.224C15.152 15.1547 15.2347 15.1093 15.336 15.088C15.4373 15.0613 15.5653 15.048 15.72 15.048H16.712C16.8667 15.048 16.9947 15.0613 17.096 15.088C17.2027 15.1093 17.288 15.1547 17.352 15.224C17.416 15.288 17.4613 15.3787 17.488 15.496C17.52 15.608 17.536 15.7547 17.536 15.936V17.984H18.2V15.912C18.2 15.736 18.2107 15.592 18.232 15.48C18.2587 15.368 18.3013 15.28 18.36 15.216C18.424 15.152 18.5093 15.1093 18.616 15.088C18.7227 15.0667 18.8587 15.056 19.024 15.056H20.152C20.3173 15.056 20.4533 15.0667 20.56 15.088C20.672 15.1093 20.7627 15.152 20.832 15.216C20.9013 15.28 20.9493 15.3707 20.976 15.488C21.008 15.6 21.024 15.7467 21.024 15.928V17.984H21.432C21.6027 17.984 21.7227 18.0293 21.792 18.12C21.8613 18.2053 21.896 18.3093 21.896 18.432C21.896 18.5547 21.8613 18.664 21.792 18.76C21.7227 18.856 21.6027 18.904 21.432 18.904H21.024ZM19.12 17.984H20.104V16.136C20.104 16.0773 20.0933 16.0373 20.072 16.016C20.056 15.9947 20.0187 15.984 19.96 15.984H19.28C19.2107 15.984 19.1653 15.9947 19.144 16.016C19.128 16.0373 19.12 16.0827 19.12 16.152V17.984ZM15.792 17.984H16.664L16.656 16.096C16.656 16.0533 16.648 16.024 16.632 16.008C16.6213 15.992 16.5947 15.984 16.552 15.984H15.912C15.864 15.984 15.832 15.992 15.816 16.008C15.8 16.024 15.792 16.0587 15.792 16.112V17.984Z" fill="white"/>
</g>
<defs>
<clipPath id="clip0_934_661">
<rect width="28" height="28" fill="white"/>
</clipPath>
</defs>
</svg>
