<svg width="236" height="56" viewBox="0 0 236 56" fill="none" xmlns="http://www.w3.org/2000/svg">
<g clip-path="url(#clip0_847_1094)">
<path d="M181.156 3H174.811C174.551 3 174.302 3.09552 174.118 3.26553C173.934 3.43555 173.831 3.66615 173.831 3.90659V4.89024C173.831 5.01046 173.779 5.12576 173.687 5.21077C173.595 5.29578 173.471 5.34354 173.341 5.34354H161.246C160.986 5.34354 160.737 5.43905 160.553 5.60907C160.369 5.77909 160.266 6.00969 160.266 6.25013V12.5781C160.266 12.8186 160.369 13.0492 160.553 13.2192C160.737 13.3892 160.986 13.4847 161.246 13.4847H162.197C162.327 13.4847 162.452 13.5325 162.544 13.6175C162.636 13.7025 162.688 13.8178 162.688 13.938V33.9571C162.688 34.0989 162.724 34.2388 162.793 34.3655C162.862 34.4922 162.962 34.6022 163.085 34.6865C163.209 34.7709 163.352 34.8273 163.503 34.8512C163.654 34.8752 163.809 34.866 163.956 34.8244L166.816 34.013H166.824L171.494 32.6878L183.487 29.2836C183.633 29.242 183.789 29.2328 183.94 29.2567C184.091 29.2806 184.234 29.3371 184.357 29.4214C184.481 29.5058 184.581 29.6157 184.65 29.7424C184.719 29.8691 184.755 30.009 184.755 30.1509V44.401C184.755 44.5212 184.703 44.6365 184.611 44.7215C184.519 44.8065 184.395 44.8543 184.265 44.8543H182.213C181.953 44.8543 181.704 44.9498 181.52 45.1198C181.336 45.2898 181.233 45.5204 181.233 45.7609V52.0889C181.233 52.3293 181.336 52.5599 181.52 52.7299C181.704 52.8999 181.953 52.9955 182.213 52.9955H192.583C192.844 52.9955 193.093 52.8999 193.277 52.7299C193.461 52.5599 193.564 52.3293 193.564 52.0889V19.5075C193.564 19.3658 193.528 19.2261 193.459 19.0996C193.39 18.9731 193.289 18.8633 193.166 18.7791C193.043 18.6949 192.9 18.6386 192.749 18.6148C192.597 18.5909 192.442 18.6001 192.296 18.6417L172.765 24.1795C172.619 24.2211 172.463 24.2303 172.312 24.2063C172.161 24.1824 172.018 24.126 171.894 24.0416C171.771 23.9573 171.671 23.8473 171.602 23.7206C171.533 23.5939 171.497 23.454 171.497 23.3122V14.3974C171.497 14.1569 171.6 13.9263 171.784 13.7563C171.968 13.5863 172.218 13.4908 172.478 13.4908H194.64C194.9 13.4908 195.149 13.3953 195.333 13.2252C195.517 13.0552 195.62 12.8246 195.62 12.5842V6.25013C195.62 6.00969 195.517 5.77909 195.333 5.60907C195.149 5.43905 194.9 5.34354 194.64 5.34354H182.627C182.497 5.34354 182.372 5.29578 182.28 5.21077C182.188 5.12576 182.137 5.01046 182.137 4.89024V3.90659C182.137 3.66615 182.033 3.43555 181.849 3.26553C181.666 3.09552 181.416 3 181.156 3V3Z" fill="#17191C"/>
<path d="M106.204 5.50219L99.5033 7.41056V3.90659C99.5033 3.66615 99.3999 3.43555 99.216 3.26553C99.0321 3.09552 98.7827 3 98.5226 3H92.1748C91.9147 3 91.6653 3.09552 91.4814 3.26553C91.2975 3.43555 91.1942 3.66615 91.1942 3.90659V16.6925C91.1943 16.8343 91.2304 16.974 91.2996 17.1005C91.3687 17.227 91.469 17.3368 91.5923 17.4209C91.7156 17.5051 91.8586 17.5614 92.0097 17.5853C92.1608 17.6091 92.3159 17.5999 92.4624 17.5583L104.936 14.009C105.082 13.9675 105.238 13.9582 105.389 13.9821C105.54 14.006 105.683 14.0622 105.806 14.1464C105.929 14.2306 106.03 14.3404 106.099 14.4669C106.168 14.5934 106.204 14.7331 106.204 14.8748V43.9477C106.204 44.1881 106.101 44.4187 105.917 44.5887C105.733 44.7588 105.484 44.8543 105.224 44.8543H89.4487C89.1886 44.8543 88.9392 44.7588 88.7553 44.5887C88.5714 44.4187 88.4681 44.1881 88.4681 43.9477V3.90659C88.4681 3.66615 88.3647 3.43555 88.1808 3.26553C87.9969 3.09552 87.7475 3 87.4874 3H80.6427C80.3827 3 80.1332 3.09552 79.9493 3.26553C79.7654 3.43555 79.6621 3.66615 79.6621 3.90659V52.0934C79.6621 52.3339 79.7654 52.5644 79.9493 52.7345C80.1332 52.9045 80.3827 53 80.6427 53H114.003C114.263 53 114.513 52.9045 114.697 52.7345C114.881 52.5644 114.984 52.3339 114.984 52.0934L115.01 11.1457V4.22843C115.01 4.0864 114.974 3.94631 114.905 3.81947C114.836 3.69262 114.736 3.58257 114.612 3.49818C114.489 3.41378 114.345 3.35741 114.194 3.3336C114.042 3.3098 113.887 3.31923 113.74 3.36113L106.26 5.4901L106.204 5.50219Z" fill="#17191C"/>
<path d="M234.642 20.9142L234.003 21.0956C233.978 21.1026 233.951 21.104 233.926 21.0996C233.9 21.0952 233.876 21.0852 233.855 21.0704C233.834 21.0556 233.818 21.0364 233.807 21.0145C233.796 20.9926 233.791 20.9686 233.792 20.9445V6.19422C233.792 5.95378 233.689 5.72318 233.505 5.55317C233.321 5.38315 233.071 5.28763 232.811 5.28763H220.893C220.763 5.28763 220.639 5.23987 220.547 5.15486C220.455 5.06985 220.403 4.95456 220.403 4.83434V3.90659C220.403 3.66615 220.3 3.43555 220.116 3.26553C219.932 3.09552 219.683 3 219.423 3H213.075C212.815 3 212.565 3.09552 212.381 3.26553C212.197 3.43555 212.094 3.66615 212.094 3.90659V12.5192C212.094 12.7596 212.197 12.9902 212.381 13.1603C212.565 13.3303 212.815 13.4258 213.075 13.4258H224.986V23.3227C224.986 23.4198 224.952 23.5143 224.89 23.5924C224.828 23.6704 224.74 23.7279 224.639 23.7564L210.084 27.8995C210.011 27.9203 209.933 27.9249 209.858 27.913C209.782 27.9011 209.711 27.8731 209.649 27.831C209.587 27.789 209.537 27.7343 209.503 27.6711C209.468 27.608 209.45 27.5382 209.45 27.4674V6.0945C209.45 5.85405 209.346 5.62346 209.162 5.45344C208.979 5.28342 208.729 5.18791 208.469 5.18791H201.623C201.363 5.18791 201.113 5.28342 200.929 5.45344C200.745 5.62346 200.642 5.85405 200.642 6.0945V30.2506C200.642 30.3477 200.609 30.4422 200.546 30.5202C200.484 30.5983 200.396 30.6558 200.296 30.6843L199.33 30.9532C199.129 31.0101 198.954 31.1248 198.829 31.2807C198.704 31.4365 198.637 31.6252 198.637 31.819V38.07C198.637 38.2119 198.673 38.3518 198.742 38.4784C198.811 38.6051 198.912 38.7149 199.035 38.7991C199.159 38.8834 199.302 38.9396 199.453 38.9633C199.605 38.9871 199.76 38.9776 199.907 38.9358L200.431 38.7847C200.456 38.7776 200.483 38.7762 200.508 38.7806C200.534 38.785 200.558 38.795 200.579 38.8098C200.6 38.8246 200.616 38.8438 200.627 38.8657C200.638 38.8876 200.643 38.9116 200.642 38.9358V52.042C200.642 52.2825 200.745 52.5131 200.929 52.6831C201.113 52.8531 201.363 52.9486 201.623 52.9486H208.467C208.727 52.9486 208.977 52.8531 209.161 52.6831C209.345 52.5131 209.448 52.2825 209.448 52.042V36.5559C209.448 36.4589 209.482 36.3644 209.544 36.2863C209.606 36.2083 209.694 36.1508 209.794 36.1223L224.352 31.9822C224.425 31.9614 224.503 31.9568 224.578 31.9688C224.654 31.9807 224.725 32.0089 224.787 32.0511C224.849 32.0933 224.899 32.1483 224.933 32.2116C224.968 32.275 224.986 32.3449 224.986 32.4158V44.401C224.986 44.5212 224.934 44.6365 224.842 44.7215C224.75 44.8065 224.626 44.8543 224.496 44.8543H222.443C222.183 44.8543 221.933 44.9498 221.749 45.1198C221.566 45.2898 221.462 45.5204 221.462 45.7609V52.0889C221.462 52.3293 221.566 52.5599 221.749 52.7299C221.933 52.8999 222.183 52.9955 222.443 52.9955H232.811C233.071 52.9955 233.321 52.8999 233.505 52.7299C233.689 52.5599 233.792 52.3293 233.792 52.0889V29.6311C233.792 29.5341 233.825 29.4395 233.888 29.3615C233.95 29.2834 234.038 29.2259 234.138 29.1975L235.219 28.8953C235.419 28.8383 235.595 28.7233 235.72 28.5672C235.844 28.4111 235.912 28.2221 235.912 28.028V21.78C235.912 21.6381 235.875 21.4982 235.806 21.3716C235.737 21.2449 235.637 21.1351 235.513 21.0508C235.389 20.9666 235.246 20.9104 235.095 20.8867C234.944 20.8629 234.788 20.8724 234.642 20.9142V20.9142Z" fill="#17191C"/>
<path d="M163.668 53H170.516C170.776 53 171.025 52.9045 171.209 52.7345C171.393 52.5644 171.496 52.3338 171.496 52.0934V36.3595C171.496 36.2178 171.46 36.0781 171.391 35.9516C171.322 35.8251 171.222 35.7153 171.098 35.6311C170.975 35.5469 170.832 35.4906 170.681 35.4668C170.53 35.4429 170.375 35.4521 170.228 35.4937L163.385 37.4338C163.184 37.4905 163.008 37.6054 162.883 37.7615C162.758 37.9177 162.69 38.1068 162.69 38.3011V52.0934C162.69 52.3333 162.793 52.5635 162.976 52.7334C163.16 52.9033 163.408 52.9992 163.668 53Z" fill="#17191C"/>
<path d="M217.216 23.6672C219.406 23.6672 221.181 22.0261 221.181 20.0016C221.181 17.9771 219.406 16.3359 217.216 16.3359C215.026 16.3359 213.251 17.9771 213.251 20.0016C213.251 22.0261 215.026 23.6672 217.216 23.6672Z" fill="#17191C"/>
<path d="M218.366 43.4573C220.462 42.8698 221.645 40.823 221.01 38.8856C220.374 36.9483 218.16 35.854 216.065 36.4415C213.969 37.029 212.786 39.0758 213.421 41.0132C214.057 42.9505 216.271 44.0448 218.366 43.4573Z" fill="#17191C"/>
<path d="M122.81 26.4203H129.156C129.416 26.4203 129.666 26.3247 129.849 26.1547C130.033 25.9847 130.137 25.7541 130.137 25.5137V8.18721L131.712 4.21936C131.767 4.08284 131.784 3.93624 131.765 3.79195C131.745 3.64766 131.688 3.50991 131.598 3.39034C131.508 3.27076 131.389 3.17287 131.25 3.10494C131.111 3.037 130.956 3.00101 130.799 3H124.58C124.379 3.00005 124.183 3.05701 124.019 3.1632C123.854 3.26939 123.729 3.41969 123.66 3.59382L119.353 14.4382C119.299 14.5752 119.281 14.7223 119.301 14.8671C119.321 15.0118 119.379 15.1499 119.469 15.2696C119.56 15.3894 119.68 15.4871 119.82 15.5547C119.96 15.6222 120.115 15.6575 120.273 15.6575H121.829V25.5137C121.829 25.7541 121.933 25.9847 122.116 26.1547C122.3 26.3247 122.55 26.4203 122.81 26.4203Z" fill="#17191C"/>
<path d="M142.421 37.7209H136.565C136.394 37.7209 136.227 37.762 136.078 37.8403C135.93 37.9186 135.806 38.0313 135.72 38.1673C135.633 38.3033 135.586 38.4579 135.584 38.6157C135.582 38.7735 135.624 38.9292 135.707 39.0672L143.784 52.5331C143.869 52.6747 143.993 52.7926 144.144 52.8747C144.295 52.9568 144.467 53.0001 144.642 53H154.352C154.612 53 154.861 52.9045 155.045 52.7345C155.229 52.5645 155.332 52.3339 155.332 52.0934V47.2719C155.332 47.0314 155.229 46.8008 155.045 46.6308C154.861 46.4608 154.612 46.3653 154.352 46.3653H148.48C148.392 46.3654 148.306 46.3437 148.23 46.3025C148.154 46.2613 148.092 46.2021 148.05 46.1311L143.282 38.1833C143.196 38.0421 143.071 37.9248 142.92 37.8435C142.768 37.7622 142.596 37.7199 142.421 37.7209V37.7209Z" fill="#17191C"/>
<path d="M140.866 25.5273H134.518C134.258 25.5273 134.008 25.6228 133.825 25.7928C133.641 25.9628 133.537 26.1934 133.537 26.4339V28.0612C133.537 28.1814 133.486 28.2967 133.394 28.3817C133.302 28.4667 133.177 28.5145 133.047 28.5145H120.985C120.725 28.5145 120.476 28.61 120.292 28.78C120.108 28.95 120.005 29.1806 120.005 29.4211V34.7911C120.005 35.0316 120.108 35.2622 120.292 35.4322C120.476 35.6022 120.725 35.6977 120.985 35.6977H125.464C125.554 35.6976 125.642 35.7206 125.719 35.764C125.796 35.8074 125.859 35.8697 125.9 35.9439C125.941 36.0181 125.96 36.1014 125.953 36.1846C125.946 36.2678 125.915 36.3477 125.862 36.4154L119.526 44.5914C119.421 44.7269 119.358 44.8867 119.344 45.0531C119.331 45.2195 119.368 45.3861 119.45 45.5345C119.533 45.6829 119.658 45.8074 119.812 45.8943C119.966 45.9811 120.143 46.027 120.323 46.0268H123.61C123.74 46.0268 123.865 46.0746 123.957 46.1596C124.049 46.2446 124.101 46.3599 124.101 46.4801V52.0934C124.101 52.3339 124.204 52.5645 124.388 52.7345C124.572 52.9045 124.821 53 125.081 53H136.849C137.109 53 137.358 52.9045 137.542 52.7345C137.726 52.5645 137.829 52.3339 137.829 52.0934V45.7609C137.829 45.5204 137.726 45.2898 137.542 45.1198C137.358 44.9498 137.109 44.8543 136.849 44.8543H133.013C132.753 44.8543 132.503 44.7588 132.319 44.5888C132.135 44.4187 132.032 44.1881 132.032 43.9477V41.1509L135.964 36.077C136.055 35.9597 136.175 35.8641 136.313 35.7981C136.452 35.7321 136.606 35.6977 136.762 35.6977H154.361C154.621 35.6977 154.87 35.6022 155.054 35.4322C155.238 35.2622 155.341 35.0316 155.341 34.7911V29.4211C155.341 29.1806 155.238 28.95 155.054 28.78C154.87 28.61 154.621 28.5145 154.361 28.5145H142.337C142.207 28.5145 142.082 28.4667 141.99 28.3817C141.898 28.2967 141.846 28.1814 141.846 28.0612V26.4339C141.846 26.1934 141.743 25.9628 141.559 25.7928C141.375 25.6228 141.126 25.5273 140.866 25.5273Z" fill="#17191C"/>
<path d="M154.649 13.0208C154.849 12.9637 155.025 12.8488 155.149 12.693C155.273 12.5372 155.341 12.3487 155.341 12.1551V3.90659C155.341 3.66615 155.237 3.43555 155.053 3.26553C154.87 3.09552 154.62 3 154.36 3H148.014C147.754 3 147.504 3.09552 147.32 3.26553C147.136 3.43555 147.033 3.66615 147.033 3.90659V6.71249C147.033 6.80954 147 6.90405 146.937 6.98211C146.875 7.06018 146.787 7.11767 146.687 7.14614L145.252 7.55411C145.144 7.58501 145.027 7.58038 144.922 7.541C144.818 7.50162 144.731 7.42991 144.676 7.33804L142.403 3.47294C142.319 3.32981 142.194 3.21034 142.043 3.12712C141.891 3.04389 141.718 2.99998 141.542 3H134.981C134.812 2.99988 134.645 3.04045 134.497 3.11776C134.35 3.19507 134.226 3.30646 134.139 3.44106C134.052 3.57566 134.004 3.72885 134 3.88566C133.996 4.04247 134.037 4.19754 134.117 4.33571L137.028 9.32951C137.062 9.38851 137.082 9.45381 137.086 9.52072C137.089 9.58764 137.077 9.65449 137.05 9.71648C137.022 9.77848 136.98 9.83406 136.926 9.87923C136.873 9.9244 136.809 9.95804 136.74 9.97773L133.481 10.904C133.282 10.9605 133.107 11.0744 132.982 11.229C132.858 11.3836 132.79 11.5709 132.788 11.7637V18.0131C132.788 18.1552 132.824 18.2953 132.893 18.4221C132.962 18.5489 133.062 18.659 133.186 18.7434C133.31 18.8278 133.453 18.8842 133.604 18.908C133.756 18.9318 133.911 18.9223 134.058 18.8804L140.986 16.9162C141.095 16.885 141.211 16.8896 141.317 16.9293C141.422 16.969 141.509 17.0413 141.563 17.1337L146.692 25.9443C146.775 26.0885 146.9 26.209 147.052 26.2931C147.204 26.3772 147.377 26.4216 147.555 26.4218H154.255C154.426 26.4218 154.593 26.3809 154.741 26.3032C154.888 26.2254 155.012 26.1134 155.099 25.9782C155.186 25.8431 155.233 25.6893 155.236 25.5321C155.239 25.3749 155.198 25.2196 155.117 25.0815L149.256 15.1241C149.221 15.0651 149.201 14.9996 149.197 14.9326C149.193 14.8655 149.206 14.7984 149.233 14.7362C149.261 14.674 149.303 14.6183 149.356 14.573C149.41 14.5277 149.474 14.4941 149.544 14.4744L154.649 13.0208Z" fill="#17191C"/>
<path d="M149.479 38.1682C148.79 38.5149 148.228 39.0428 147.864 39.6849C147.5 40.327 147.349 41.0546 147.432 41.7757C147.516 42.4967 147.828 43.1787 148.33 43.7356C148.833 44.2924 149.503 44.6989 150.255 44.9038C151.007 45.1086 151.808 45.1026 152.557 44.8865C153.306 44.6703 153.968 44.2537 154.461 43.6894C154.953 43.1251 155.254 42.4385 155.324 41.7163C155.394 40.9941 155.232 40.2689 154.856 39.6323C154.353 38.7792 153.504 38.1457 152.495 37.8712C151.487 37.5966 150.402 37.7034 149.479 38.1682V38.1682Z" fill="#17191C"/>
</g>
<rect width="56" height="56" rx="12" fill="#B5FD1D"/>
<mask id="mask0_847_1094" style="mask-type:luminance" maskUnits="userSpaceOnUse" x="0" y="0" width="56" height="56">
<rect width="56" height="56" rx="12" fill="white"/>
</mask>
<g mask="url(#mask0_847_1094)">
<path d="M33.4364 70.6977C29.9122 70.6977 26.5474 70.4715 24.3438 70.2889C20.4707 69.9564 16.9465 67.6996 14.9187 64.249L9.92678 55.7533L9.59426 55.8474C9.46135 55.8855 9.32371 55.9048 9.18542 55.9046C8.65361 55.9034 8.16172 55.6222 7.89077 55.1646L3.46577 47.6624C3.44533 47.627 3.42625 47.5902 3.40854 47.5547L3.399 47.5357C3.38107 47.4984 3.36515 47.4602 3.3513 47.4212L3.34176 47.3939C3.33222 47.3667 3.32268 47.3367 3.31314 47.3067L3.30496 47.274C3.29542 47.2386 3.28861 47.2045 3.2818 47.1691V47.1405C3.2818 47.105 3.27226 47.0764 3.26953 47.0464V47.011C3.26953 46.9796 3.26953 46.9428 3.26953 46.906V46.8802C3.26953 46.8434 3.26953 46.812 3.26953 46.7793V46.7616C3.26953 46.7193 3.27907 46.6812 3.28588 46.643V46.624C3.29406 46.5858 3.30088 46.5531 3.30905 46.5217V46.5013C3.31859 46.4645 3.33086 46.4291 3.34312 46.3936C3.34312 46.3936 3.36356 46.3364 3.36902 46.3255L3.37719 46.3051L3.38401 46.2901C3.399 46.256 3.41535 46.2233 3.43307 46.1892L3.45215 46.1551C3.47737 46.1083 3.50512 46.0628 3.53528 46.0189L3.54618 46.0039L3.55299 45.9943C3.57889 45.9616 3.60478 45.9276 3.63476 45.8949L3.66065 45.8662C3.692 45.8335 3.71789 45.8076 3.74515 45.7831L3.7833 45.749L3.8092 45.7272C3.81874 45.7191 4.94713 44.8019 7.03084 43.2742C6.60821 41.786 6.35809 40.2542 6.2854 38.7088C6.15318 35.7125 6.62976 32.7204 7.68635 29.9133C8.77658 26.9896 10.3932 24.2903 12.4561 21.9492C14.6458 19.4497 17.2627 17.3597 20.1845 15.7771C22.4315 14.5505 24.8341 13.6337 27.3269 13.0515L28.6461 10.8001C28.5182 10.6587 28.3998 10.5089 28.2918 10.3518C27.1851 8.7399 27.3203 6.58105 28.6195 5.11985C29.9186 3.65865 32.0468 3.27181 33.7771 4.18234C35.5074 5.09287 36.3937 7.06604 35.925 8.96428C35.4563 10.8625 33.7535 12.1964 31.7983 12.197C31.6412 12.1966 31.4843 12.1879 31.3281 12.1711L31.1673 12.4437C31.9182 12.3796 32.6664 12.3469 33.4091 12.3469C35.235 12.3455 37.0555 12.5433 38.8385 12.937C41.7704 13.5694 44.5436 14.7896 46.9907 16.5239C48.2493 17.4228 49.4006 18.463 50.4222 19.6242C52.848 18.6907 54.2081 18.2437 54.2217 18.2396L54.253 18.2301L54.3334 18.2083L54.3716 18.1987L54.467 18.1824L54.5147 18.1756H54.591H54.6605H54.7273H54.7777L54.8677 18.1838H54.9126L54.9767 18.1947L55.0366 18.2083C55.0694 18.2165 55.1034 18.2246 55.1361 18.2355L55.1702 18.2464L55.2479 18.2751L55.282 18.2901C55.316 18.305 55.3487 18.32 55.3801 18.3364L55.4114 18.3527L55.4823 18.3936L55.5136 18.4141C55.5436 18.4345 55.5722 18.4536 55.5995 18.4754L55.6281 18.4972C55.649 18.5136 55.6694 18.5313 55.6894 18.5504L55.718 18.5762C55.7453 18.6008 55.7698 18.6267 55.7944 18.6526L55.8175 18.6785C55.838 18.703 55.8571 18.7248 55.8748 18.748L55.8938 18.7725C55.917 18.8038 55.9375 18.8352 55.9579 18.8665L55.9756 18.8938L56.0247 18.981L59.9195 26.8048C60.0128 26.9911 60.0658 27.1949 60.0749 27.4031C60.077 27.4435 60.077 27.484 60.0749 27.5244C60.0611 27.9394 59.8767 28.3304 59.5652 28.6051L59.3049 28.8313L63.7408 37.7045C65.5125 41.2477 65.5043 45.3893 63.7286 48.799C62.2785 51.5859 59.9945 55.6879 57.3588 59.4043C54.3021 63.7134 51.3925 66.6407 48.7119 68.103C46.0899 69.5326 42.0765 70.3816 36.7847 70.6242C35.7258 70.6732 34.6002 70.6977 33.4364 70.6977Z" fill="black"/>
<path d="M35.1814 43.3369C48.5995 36.02 57.0502 28.8135 58.5738 27.4753L54.6885 19.6706C54.6885 19.6706 43.5531 23.3119 28.6836 31.4206C13.7215 39.5796 4.75977 46.8978 4.75977 46.8978L9.18612 54.4C11.0477 53.8767 21.6203 50.7314 35.1814 43.3369Z" fill="white"/>
<path fill-rule="evenodd" clip-rule="evenodd" d="M8.36907 54.8866C8.53966 55.1765 8.85035 55.3552 9.18674 55.3568C9.27473 55.3571 9.36235 55.3452 9.44704 55.3213C11.434 54.7612 22.0376 51.5942 35.6407 44.1767L35.6413 44.1778C49.1221 36.8255 57.6368 29.574 59.2068 28.1962C59.5342 27.9101 59.6266 27.4388 59.4316 27.0501L55.5463 19.2454C55.3354 18.8195 54.8432 18.6138 54.392 18.763C54.2803 18.7998 43.0018 22.5243 28.2263 30.5811C13.3583 38.6898 4.24525 46.0843 4.1553 46.1579C3.7884 46.4559 3.69506 46.9777 3.93589 47.3844L8.36907 54.8866ZM9.63334 53.2744L6.00694 47.1268C9.56656 44.3235 18.1099 38.2768 29.1417 32.2669C40.1109 26.2856 49.878 22.3498 54.2035 20.8508L57.387 27.2327C54.9067 29.3519 46.8731 35.8715 34.7238 42.496C22.4804 49.1737 12.7323 52.3504 9.63334 53.2744Z" fill="black"/>
<path d="M35.1814 43.3369C48.5995 36.02 57.0502 28.8135 58.5738 27.4753L54.6885 19.6706C54.6885 19.6706 43.5531 23.3119 28.6836 31.4206C13.7215 39.5796 4.75977 46.8978 4.75977 46.8978L9.18612 54.4C11.0477 53.8767 21.6203 50.7314 35.1814 43.3369Z" fill="white"/>
<path fill-rule="evenodd" clip-rule="evenodd" d="M8.36907 54.8866C8.53966 55.1765 8.85035 55.3552 9.18674 55.3568C9.27473 55.3571 9.36235 55.3452 9.44704 55.3213C11.434 54.7612 22.0376 51.5942 35.6407 44.1767L35.6413 44.1778C49.1221 36.8255 57.6368 29.574 59.2068 28.1962C59.5342 27.9101 59.6266 27.4388 59.4316 27.0501L55.5463 19.2454C55.3354 18.8195 54.8432 18.6138 54.392 18.763C54.2803 18.7998 43.0018 22.5243 28.2263 30.5811C13.3583 38.6898 4.24525 46.0843 4.1553 46.1579C3.7884 46.4559 3.69506 46.9777 3.93589 47.3844L8.36907 54.8866ZM9.63334 53.2744L6.00694 47.1268C9.56656 44.3235 18.1099 38.2768 29.1417 32.2669C40.1109 26.2856 49.878 22.3498 54.2035 20.8508L57.387 27.2327C54.9067 29.3519 46.8731 35.8715 34.7238 42.496C22.4804 49.1737 12.7323 52.3504 9.63334 53.2744Z" fill="black"/>
<path d="M27.1055 16.3985L33.1018 6.168Z" fill="white"/>
<path d="M27.1057 17.3552C26.762 17.3571 26.4438 17.174 26.2729 16.8757C26.1019 16.5775 26.1046 16.2104 26.2799 15.9147L32.2762 5.68423C32.449 5.38845 32.7665 5.20735 33.1091 5.20914C33.4517 5.21094 33.7673 5.39536 33.937 5.69294C34.1067 5.99051 34.1048 6.35603 33.932 6.65181L27.9357 16.8823C27.7636 17.1771 27.4471 17.3574 27.1057 17.3552Z" fill="black"/>
<ellipse cx="31.7926" cy="7.94777" rx="3.70271" ry="3.70272" fill="#0F0F0F"/>
<ellipse cx="23.687" cy="20.6833" rx="23.687" ry="20.6833" transform="matrix(0.876935 -0.480608 0.476778 0.879023 0.170898 28.4706)" fill="white"/>
<path fill-rule="evenodd" clip-rule="evenodd" d="M9.169 47.0614C12.884 53.874 20.2513 57.6217 28.2318 57.6217C32.7549 57.6029 37.2012 56.4513 41.1647 54.2719C53.0946 47.7632 58.1519 33.9486 52.4391 23.4728C46.7276 13.001 32.3733 9.76577 20.4434 16.2718C14.6856 19.4116 10.3383 24.3286 8.20006 30.1178C6.04548 35.9451 6.39027 41.9659 9.169 47.0614ZM21.3594 17.9507C25.0439 15.9173 29.1792 14.8396 33.3874 14.8162C40.6838 14.8162 47.3915 18.2055 50.759 24.3817C55.9662 33.9336 51.2468 46.5871 40.2464 52.5875C29.2459 58.5879 16.0554 55.7001 10.8482 46.151C8.33788 41.5461 8.03398 36.0881 9.99504 30.78C11.9725 25.4256 16.0077 20.8698 21.3594 17.9507Z" fill="black"/>
<path d="M62.3983 38.3777C63.9532 41.4862 63.9518 45.1194 62.3983 48.1026C59.2884 54.0716 53.6028 63.7229 47.9935 66.7824C42.5178 69.7751 31.2407 69.3663 24.473 68.7844C21.0865 68.4927 17.9943 66.5071 16.2145 63.4804L6.05078 46.1987C6.05078 46.1987 16.8509 43.4732 31.039 35.7406C45.1398 28.0518 53.3984 20.3792 53.3984 20.3792L62.3983 38.3777Z" fill="#8564FF"/>
<path fill-rule="evenodd" clip-rule="evenodd" d="M24.3895 69.7383C27.8415 70.0341 30.8465 70.1622 33.463 70.1622C41.7665 70.1622 46.1493 68.8757 48.4429 67.6233C51.5364 65.9348 56.6142 61.2549 63.2387 48.5441C64.934 45.2898 64.9381 41.3295 63.2469 37.9484L54.2525 19.9459C54.1185 19.6754 53.8644 19.4843 53.5674 19.4305C53.2703 19.3768 52.9654 19.4669 52.7452 19.6733C52.7428 19.6754 52.7344 19.6829 52.7201 19.6959C52.2057 20.1614 44.0242 27.5647 30.5793 34.8957C16.6761 42.4783 5.92231 45.2394 5.81601 45.2666C5.52289 45.339 5.28135 45.5459 5.16478 45.8244C5.04822 46.103 5.07039 46.4202 5.22455 46.6798L15.3883 63.9655C17.3262 67.2621 20.6909 69.4194 24.3895 69.7383ZM17.0437 62.9979L7.50412 46.7807C10.7435 45.8281 20.0895 42.7917 31.4948 36.576C42.8427 30.3903 50.5221 24.131 53.1019 21.9151L61.5512 38.8056C62.963 41.6416 62.9644 44.9518 61.5512 47.6637C58.6593 53.2144 52.9887 62.9707 47.5376 65.9443C42.2118 68.8484 30.8542 68.3782 24.5581 67.8331C21.4768 67.5687 18.6681 65.7603 17.0437 62.9979Z" fill="black"/>
<path d="M41.1544 53.8113L38.4289 55.3022C38.0718 55.4971 37.6725 55.3513 37.6575 55.0201L37.3223 47.9445C37.3297 47.7231 37.4594 47.5242 37.6589 47.428L42.2447 44.9286C42.6058 44.731 43.0092 44.885 43.016 45.2216L43.0951 49.1301L46.0728 47.507C46.5102 47.2686 46.9654 47.5452 46.8169 47.9609L43.0705 58.4639C42.8893 58.975 42.0811 59.0581 41.9967 58.5757L41.1544 53.8113Z" fill="black"/>
<path d="M35.1814 43.3369C48.5995 36.02 57.0502 28.8135 58.5738 27.4753L54.6885 19.6706C54.6885 19.6706 45.9162 27.6456 31.0467 35.7515C16.0791 43.9133 4.75977 46.8978 4.75977 46.8978L9.18612 54.4C11.0477 53.8767 21.6203 50.7314 35.1814 43.3369Z" fill="#8564FF"/>
<path fill-rule="evenodd" clip-rule="evenodd" d="M8.36841 54.8866C8.53901 55.1765 8.84969 55.3551 9.18609 55.3567C9.27408 55.3571 9.36169 55.3452 9.44638 55.3213C11.4331 54.7612 22.0352 51.5947 35.6368 44.1785L35.6393 44.1832C49.1201 36.8309 57.6348 29.5795 59.2048 28.2017C59.5322 27.9155 59.6246 27.4442 59.4296 27.0556L55.5443 19.2508C55.4116 18.9818 55.16 18.7909 54.8652 18.7354C54.5704 18.6799 54.2667 18.7664 54.0452 18.9687C54.0426 18.9709 54.0319 18.9804 54.0132 18.9969C53.4183 19.5226 44.7273 27.2033 30.5888 34.9134C15.9156 42.9158 4.6289 45.9425 4.51579 45.9725C4.22503 46.0477 3.98668 46.2555 3.87246 46.5333C3.75824 46.811 3.7815 47.1264 3.93524 47.3844L8.36841 54.8866ZM9.63253 53.2744L6.21191 47.4757C7.47522 47.0955 9.68159 46.3882 12.6293 45.2775C19.1133 42.8193 25.4198 39.9165 31.504 36.5897C43.5484 30.0224 51.7115 23.4578 54.3813 21.1983L57.3862 27.2328C54.9059 29.3519 46.8723 35.8715 34.7229 42.4961C22.4796 49.1738 12.7315 52.3504 9.63253 53.2744Z" fill="black"/>
<ellipse cx="2.61931" cy="1.2388" rx="2.61931" ry="1.2388" transform="matrix(0.876935 -0.480608 0.476778 0.879023 13.5225 31.5561)" fill="#FFDCE8"/>
<ellipse cx="2.61931" cy="1.2388" rx="2.61931" ry="1.2388" transform="matrix(0.876935 -0.480608 0.476778 0.879023 25.9365 24.7884)" fill="#FFDCE8"/>
<path d="M15.8516 42.9662C15.8516 42.9662 20.1062 47.6419 23.0744 45.5555C25.6937 43.7157 22.8659 40.0362 22.8659 40.0362" fill="white"/>
<path d="M21.3729 47.0532C18.3202 47.0532 15.3017 43.7825 15.1436 43.6095C14.7879 43.2184 14.8166 42.6132 15.2076 42.2576C15.5986 41.9019 16.2039 41.9306 16.5595 42.3216C16.6195 42.387 20.3249 46.32 22.5258 44.7746C22.8934 44.5424 23.142 44.162 23.2072 43.7321C23.383 42.5969 22.4713 41.1019 22.1047 40.6208C21.783 40.2012 21.8623 39.6002 22.2819 39.2785C22.7015 38.9567 23.3025 39.036 23.6242 39.4557C23.8096 39.6969 25.4272 41.876 25.1001 44.0183C24.9522 44.962 24.4179 45.8015 23.6256 46.335C22.969 46.8056 22.1807 47.057 21.3729 47.0532V47.0532Z" fill="black"/>
<path d="M19.8744 36.8527L22.4569 41.1482L17.7621 43.4282L13.9912 40.1697L19.8744 36.8527V36.8527Z" fill="white"/>
<path d="M45.3792 26.8647C45.3792 26.8647 47.0037 32.9796 43.643 34.3424C40.6776 35.5458 39.1104 31.1766 39.1104 31.1766" fill="white"/>
<path d="M42.6277 35.5062C42.153 35.5062 41.6837 35.4049 41.2513 35.2092C39.2739 34.3247 38.3185 31.7844 38.2163 31.4983C38.0383 31.0008 38.2973 30.4532 38.7948 30.2752C39.2923 30.0971 39.84 30.3562 40.018 30.8537C40.2237 31.4206 40.9869 32.9973 42.0363 33.4634C42.4336 33.6415 42.8887 33.638 43.2832 33.4539C44.278 33.045 44.7932 31.9275 44.8136 30.1177C44.8125 29.1049 44.6913 28.0957 44.4525 27.1114C44.3166 26.6004 44.6208 26.0759 45.1318 25.9401C45.6429 25.8042 46.1673 26.1084 46.3032 26.6194C46.3781 26.9015 48.0993 33.5629 44.0041 35.2282C43.5676 35.409 43.1002 35.5034 42.6277 35.5062Z" fill="black"/>
<path d="M38.0127 27.2504L40.2436 31.3783L44.7081 28.4892L44.0158 23.7617L38.0127 27.2504V27.2504Z" fill="white"/>
<ellipse cx="17.4375" cy="28.1499" rx="2.24997" ry="2.24998" fill="black"/>
<ellipse cx="25.2402" cy="23.8939" rx="2.24997" ry="2.24998" fill="black"/>
<path d="M25.7553 28.4497C25.7585 27.989 25.432 27.5918 24.9794 27.5059C24.5267 27.4199 24.0774 27.6697 23.9114 28.0995V28.0995C23.7231 28.4936 23.4187 28.8208 23.0392 29.0371C22.605 29.292 22.1105 29.4261 21.6069 29.4255C21.0801 29.3792 20.6155 29.7688 20.5692 30.2956C20.5229 30.8225 20.9125 31.2871 21.4393 31.3334C21.4666 31.3334 21.5442 31.3416 21.6628 31.3416C22.4767 31.3291 23.274 31.1096 23.9796 30.7038C24.7452 30.2736 25.3478 29.603 25.694 28.7959V28.7959C25.7361 28.6854 25.7569 28.5679 25.7553 28.4497Z" fill="black"/>
</g>
<defs>
<clipPath id="clip0_847_1094">
<rect width="156.25" height="50" fill="white" transform="translate(79.6621 3)"/>
</clipPath>
</defs>
</svg>
