<svg width="28" height="28" viewBox="0 0 28 28" fill="none" xmlns="http://www.w3.org/2000/svg">
<rect x="2.1543" y="1.07692" width="23.6923" height="25.8462" rx="4.30769" fill="url(#paint0_linear_867_679)"/>
<g filter="url(#filter0_d_867_679)">
<path d="M11 7L14 4M14 4L17 7M14 4L14 10" stroke="#84E1FF" stroke-width="2" stroke-linecap="round" stroke-linejoin="round" shape-rendering="crispEdges"/>
</g>
<g filter="url(#filter1_bi_867_679)">
<rect y="12.9231" width="28" height="10.7692" rx="2.15385" fill="#61C6FF" fill-opacity="0.46"/>
<rect x="0.215385" y="13.1385" width="27.5692" height="10.3385" rx="1.93846" stroke="#6BB9FF" stroke-opacity="0.3" stroke-width="0.430769"/>
</g>
<path d="M6.37093 21.0532C5.97893 21.0532 5.61277 21.0295 5.27247 20.9822C4.93647 20.9348 4.61339 20.8594 4.30323 20.756C4.06631 20.8809 3.77985 20.9757 3.44385 21.0403C3.10785 21.1049 2.70723 21.1437 2.242 21.1566C2.04385 21.1652 1.90816 21.1329 1.83493 21.0597C1.7617 20.9865 1.72939 20.8852 1.738 20.756C1.74662 20.6052 1.794 20.5083 1.88016 20.4652C1.96631 20.4222 2.11062 20.3963 2.31308 20.3877C2.50693 20.3791 2.69 20.3683 2.86231 20.3554C3.03462 20.3468 3.1897 20.3274 3.32754 20.2972C3.21554 20.224 3.09923 20.1378 2.97862 20.0388C2.858 19.944 2.746 19.8471 2.64262 19.748C2.53062 19.6446 2.45954 19.5412 2.42939 19.4378C2.40354 19.3302 2.41647 19.2311 2.46816 19.1406C2.33893 19.1062 2.25708 19.0351 2.22262 18.9274C2.19247 18.8154 2.17739 18.6474 2.17739 18.4234V17.0277C2.17739 16.8812 2.19031 16.7585 2.21616 16.6594C2.24631 16.5603 2.2937 16.4828 2.35831 16.4268C2.42723 16.3665 2.51554 16.3255 2.62323 16.304C2.73523 16.2782 2.87308 16.2652 3.03677 16.2652H4.41954V15.8905H2.158C2.02016 15.8905 1.92323 15.8582 1.86723 15.7935C1.81123 15.7289 1.78323 15.6471 1.78323 15.548C1.78323 15.4489 1.80908 15.3671 1.86077 15.3025C1.91247 15.2335 2.01154 15.1991 2.158 15.1991H7.54693C7.69339 15.1991 7.79247 15.2335 7.84416 15.3025C7.89585 15.3714 7.9217 15.4554 7.9217 15.5545C7.9217 15.6535 7.8937 15.7354 7.8377 15.8C7.7817 15.8603 7.68477 15.8905 7.54693 15.8905H5.21431V16.2652H6.59708C6.778 16.2652 6.92447 16.276 7.03647 16.2975C7.14847 16.3191 7.23462 16.36 7.29493 16.4203C7.35954 16.4763 7.40262 16.5538 7.42416 16.6529C7.4457 16.7477 7.45647 16.8726 7.45647 17.0277V18.4298C7.45647 18.5763 7.4457 18.6991 7.42416 18.7982C7.40262 18.8929 7.3617 18.9705 7.30139 19.0308C7.24108 19.0868 7.15493 19.1277 7.04293 19.1535C6.93093 19.1751 6.78231 19.1858 6.59708 19.1858H5.182C5.16047 19.3754 5.12385 19.5563 5.07216 19.7286C5.02477 19.8966 4.96447 20.0409 4.89123 20.1615C5.10231 20.2089 5.33062 20.2412 5.57616 20.2585C5.8217 20.2757 6.08662 20.2822 6.37093 20.2778H7.534C7.68047 20.2778 7.79031 20.3058 7.86354 20.3618C7.93677 20.4178 7.97339 20.5191 7.97339 20.6655C7.97339 20.8034 7.93677 20.9025 7.86354 20.9628C7.79031 21.0231 7.68047 21.0532 7.534 21.0532H6.37093ZM5.21431 18.0034V18.4945H6.56477C6.60785 18.4945 6.63585 18.488 6.64877 18.4751C6.666 18.4622 6.67462 18.4298 6.67462 18.3782V18.0034H5.21431ZM2.98508 18.3782C2.98508 18.4083 2.98939 18.4363 2.998 18.4622C3.01093 18.4837 3.03893 18.4945 3.082 18.4945H4.41954V18.0034H2.98508V18.3782ZM5.21431 16.9437V17.4025H6.67462V17.06C6.67462 17.0126 6.66816 16.9825 6.65523 16.9695C6.64231 16.9523 6.61216 16.9437 6.56477 16.9437H5.21431ZM3.082 16.9437C3.04323 16.9437 3.01739 16.9523 3.00447 16.9695C2.99154 16.9825 2.98508 17.0126 2.98508 17.06V17.4025H4.41954V16.9437H3.082ZM4.10939 19.8837C4.174 19.8105 4.23216 19.7092 4.28385 19.58C4.33985 19.4465 4.37862 19.3151 4.40016 19.1858H3.18539C3.32323 19.3151 3.47616 19.4465 3.64416 19.58C3.81216 19.7092 3.96723 19.8105 4.10939 19.8837ZM8.10262 17.7772C7.99062 17.7772 7.90877 17.7535 7.85708 17.7062C7.80539 17.6545 7.77954 17.5683 7.77954 17.4477C7.77954 17.3098 7.80323 17.2151 7.85062 17.1634C7.90231 17.1074 7.98631 17.0794 8.10262 17.0794H8.58077C8.58077 17.0751 8.57862 17.0708 8.57431 17.0665C8.57431 17.0622 8.57431 17.0557 8.57431 17.0471C8.55708 16.9135 8.49246 16.724 8.38046 16.4785C8.32016 16.3406 8.3137 16.2351 8.36108 16.1618H8.28354C8.17154 16.1618 8.08754 16.1382 8.03154 16.0908C7.97985 16.0391 7.954 15.9422 7.954 15.8C7.954 15.6751 7.97985 15.5889 8.03154 15.5415C8.08754 15.4898 8.17154 15.464 8.28354 15.464H9.24631C9.17739 15.3262 9.16016 15.2163 9.19462 15.1345C9.22908 15.0526 9.28293 14.9945 9.35616 14.96C9.59308 14.8609 9.75893 14.9234 9.8537 15.1474C9.87523 15.1905 9.89677 15.24 9.91831 15.296C9.94416 15.3477 9.96785 15.4037 9.98939 15.464H10.7002C10.8122 15.464 10.9026 15.492 10.9715 15.548C11.0448 15.604 11.0814 15.6945 11.0814 15.8194C11.0814 15.9228 11.0534 16.0025 10.9974 16.0585C10.9457 16.1102 10.8768 16.1425 10.7906 16.1554C10.8294 16.2243 10.8337 16.3191 10.8035 16.4397C10.7734 16.5646 10.7432 16.6766 10.7131 16.7757C10.6829 16.8705 10.6442 16.9717 10.5968 17.0794H10.9263C11.1417 17.0794 11.2494 17.1978 11.2494 17.4348C11.2494 17.6631 11.1417 17.7772 10.9263 17.7772H9.886V18.1714H10.6937C10.8057 18.1714 10.8962 18.1994 10.9651 18.2554C11.034 18.3114 11.0685 18.4018 11.0685 18.5268C11.0685 18.6474 11.034 18.7357 10.9651 18.7917C10.8962 18.8434 10.8057 18.8692 10.6937 18.8692H9.886V20.5686C9.886 20.7366 9.85154 20.8723 9.78262 20.9757C9.718 21.0791 9.59093 21.1351 9.40139 21.1437C9.15585 21.1566 8.94908 21.1351 8.78108 21.0791C8.64323 21.0317 8.55708 20.9714 8.52262 20.8982C8.49246 20.8249 8.49893 20.7258 8.542 20.6009C8.61093 20.4028 8.75739 20.3446 8.98139 20.4265C9.08477 20.4652 9.14939 20.476 9.17523 20.4588C9.20108 20.4415 9.214 20.3834 9.214 20.2843V18.8692H8.30293C8.19093 18.8692 8.10046 18.8455 8.03154 18.7982C7.96693 18.7508 7.93462 18.6646 7.93462 18.5397C7.93462 18.4062 7.96693 18.3114 8.03154 18.2554C8.10046 18.1994 8.19093 18.1714 8.30293 18.1714H9.214V17.7772H8.10262ZM12.0506 17.0923H13.6466C13.7845 17.0923 13.8771 17.1203 13.9245 17.1763C13.9762 17.2323 14.002 17.3249 14.002 17.4542C14.002 17.5877 13.9762 17.6825 13.9245 17.7385C13.8771 17.7945 13.7845 17.8225 13.6466 17.8225H13.3365V20.7818C13.3365 20.9154 13.3042 21.0102 13.2395 21.0662C13.1749 21.1222 13.0845 21.1502 12.9682 21.1502C12.8389 21.1502 12.7463 21.1222 12.6903 21.0662C12.6343 21.0102 12.6063 20.9154 12.6063 20.7818V17.8225H12.0506C12.0463 18.2532 12.0334 18.6172 12.0118 18.9145C11.9946 19.2117 11.9666 19.468 11.9278 19.6834C11.8891 19.8988 11.8374 20.0905 11.7728 20.2585C11.7125 20.4265 11.6392 20.5966 11.5531 20.7689C11.4152 21.0489 11.2278 21.1308 10.9909 21.0145C10.8832 20.9542 10.8208 20.8766 10.8035 20.7818C10.7863 20.6871 10.8143 20.5665 10.8875 20.42C10.9694 20.2606 11.0383 20.1012 11.0943 19.9418C11.1503 19.7782 11.1934 19.5951 11.2235 19.3926C11.258 19.1858 11.2817 18.9489 11.2946 18.6818C11.3118 18.4148 11.3205 18.096 11.3205 17.7255V16.2458C11.3205 16.1166 11.3291 16.0089 11.3463 15.9228C11.3635 15.8366 11.3958 15.7677 11.4432 15.716C11.4949 15.66 11.566 15.6169 11.6565 15.5868C11.7512 15.5566 11.874 15.5308 12.0248 15.5092C12.1282 15.492 12.2402 15.4705 12.3608 15.4446C12.4814 15.4188 12.5977 15.3908 12.7097 15.3606C12.826 15.3305 12.9337 15.3003 13.0328 15.2702C13.1362 15.2357 13.2202 15.2034 13.2848 15.1732C13.4183 15.1129 13.5368 15.0957 13.6402 15.1215C13.7478 15.1474 13.8254 15.2292 13.8728 15.3671C13.9202 15.4963 13.918 15.604 13.8663 15.6902C13.8189 15.772 13.7155 15.8409 13.5562 15.8969C13.4442 15.9357 13.3365 15.9723 13.2331 16.0068C13.134 16.0369 13.0349 16.0649 12.9358 16.0908C12.8368 16.1166 12.7334 16.1403 12.6257 16.1618C12.518 16.1834 12.4017 16.2049 12.2768 16.2265C12.1777 16.2437 12.1152 16.2674 12.0894 16.2975C12.0635 16.3234 12.0506 16.3815 12.0506 16.472V17.0923ZM8.87154 19.0114C9.07831 19.0975 9.12354 19.272 9.00723 19.5348C8.96416 19.6338 8.92323 19.72 8.88446 19.7932C8.85 19.8665 8.81339 19.9354 8.77462 20C8.73585 20.0603 8.69493 20.1206 8.65185 20.1809C8.61308 20.2455 8.56785 20.3145 8.51616 20.3877C8.41277 20.5298 8.32016 20.6117 8.23831 20.6332C8.15646 20.6591 8.06816 20.6354 7.97339 20.5622C7.926 20.5234 7.88939 20.4868 7.86354 20.4523C7.8377 20.4178 7.82262 20.3791 7.81831 20.336C7.814 20.2972 7.82262 20.252 7.84416 20.2003C7.8657 20.1486 7.90016 20.0862 7.94754 20.0129C8.04231 19.8665 8.122 19.7372 8.18662 19.6252C8.25123 19.5089 8.30939 19.3969 8.36108 19.2892C8.43431 19.1342 8.5097 19.0372 8.58723 18.9985C8.66477 18.9597 8.75954 18.964 8.87154 19.0114ZM10.6743 20.4523C10.5623 20.4868 10.4783 20.4846 10.4223 20.4458C10.3706 20.4114 10.3232 20.308 10.2802 20.1357C10.2457 20.0151 10.2112 19.9117 10.1768 19.8255C10.1466 19.7351 10.1057 19.6338 10.054 19.5218C9.98939 19.3797 9.9657 19.2742 9.98293 19.2052C10.0002 19.132 10.0648 19.0609 10.1768 18.992C10.25 18.9446 10.3254 18.936 10.4029 18.9662C10.4848 18.9963 10.5558 19.0738 10.6162 19.1988C10.6765 19.3366 10.7325 19.468 10.7842 19.5929C10.8358 19.7135 10.8746 19.832 10.9005 19.9483C10.9349 20.0818 10.9392 20.1895 10.9134 20.2714C10.8875 20.3532 10.81 20.4135 10.6808 20.4523H10.6743ZM9.20754 16.8662C9.21616 16.9135 9.22262 16.9545 9.22693 16.9889C9.23123 17.0191 9.23554 17.0492 9.23985 17.0794H9.91831C9.92262 17.0449 9.92908 17.0105 9.9377 16.976C9.95062 16.9415 9.96785 16.9028 9.98939 16.8597C10.0626 16.7089 10.1272 16.5108 10.1832 16.2652C10.1918 16.2265 10.2048 16.192 10.222 16.1618H8.95554C8.96416 16.1834 8.97277 16.2071 8.98139 16.2329C8.99431 16.2545 9.00723 16.2782 9.02016 16.304C9.06323 16.4074 9.0977 16.5022 9.12354 16.5883C9.1537 16.6745 9.1817 16.7671 9.20754 16.8662ZM18.7965 18.6883V19.8449C18.7965 19.944 18.7986 20.0215 18.8029 20.0775C18.8115 20.1335 18.8245 20.1766 18.8417 20.2068C18.8589 20.2369 18.8848 20.2542 18.9192 20.2585C18.9537 20.2671 18.9968 20.2714 19.0485 20.2714C19.1045 20.2714 19.1497 20.2649 19.1842 20.252C19.2186 20.2391 19.2466 20.2089 19.2682 20.1615C19.2897 20.1185 19.3048 20.056 19.3134 19.9742C19.3263 19.888 19.3349 19.7738 19.3392 19.6317C19.3478 19.4895 19.378 19.3926 19.4297 19.3409C19.4857 19.2849 19.5805 19.2569 19.714 19.2569C19.938 19.2569 20.0543 19.3905 20.0629 19.6575C20.0457 19.9591 20.022 20.2003 19.9918 20.3812C19.9617 20.5622 19.91 20.7022 19.8368 20.8012C19.7678 20.9003 19.6709 20.9649 19.546 20.9951C19.4211 21.0295 19.2552 21.0468 19.0485 21.0468C18.8288 21.0468 18.65 21.0295 18.5122 20.9951C18.3786 20.9649 18.2752 20.9068 18.202 20.8206C18.1288 20.7388 18.0792 20.6246 18.0534 20.4782C18.0275 20.3317 18.0146 20.1443 18.0146 19.916V18.6883H17.5558C17.5343 19.2268 17.4309 19.6855 17.2457 20.0646C17.0605 20.448 16.7697 20.7775 16.3734 21.0532C16.0675 21.2643 15.8457 21.2191 15.7078 20.9175C15.6605 20.8142 15.6648 20.7194 15.7208 20.6332C15.7768 20.5471 15.8565 20.4717 15.9598 20.4071C16.1063 20.3166 16.2291 20.2175 16.3282 20.1098C16.4315 20.0022 16.5177 19.8815 16.5866 19.748C16.6555 19.6102 16.7094 19.4551 16.7482 19.2828C16.7869 19.1105 16.8149 18.9123 16.8322 18.6883H16.7029C16.5565 18.6883 16.438 18.6775 16.3475 18.656C16.2571 18.6345 16.186 18.5957 16.1343 18.5397C16.0826 18.4837 16.0482 18.4083 16.0309 18.3135C16.0137 18.2188 16.0051 18.0982 16.0051 17.9517V16.7757C16.0051 16.6335 16.0115 16.5172 16.0245 16.4268C16.0417 16.3363 16.0718 16.2652 16.1149 16.2135C16.158 16.1575 16.2162 16.1188 16.2894 16.0972C16.3669 16.0714 16.4682 16.0563 16.5931 16.052C16.5457 15.9788 16.494 15.9077 16.438 15.8388C16.382 15.7655 16.326 15.6966 16.27 15.632C16.1666 15.5157 16.1214 15.4123 16.1343 15.3218C16.1515 15.2271 16.1946 15.1474 16.2635 15.0828C16.3583 14.9923 16.4574 14.9514 16.5608 14.96C16.6642 14.9643 16.7654 15.0246 16.8645 15.1409C16.9248 15.2228 16.9915 15.3111 17.0648 15.4058C17.138 15.5006 17.2392 15.6385 17.3685 15.8194C17.4245 15.9055 17.4632 15.9831 17.4848 16.052H18.0534C18.1525 15.9185 18.2408 15.7849 18.3183 15.6514C18.3958 15.5135 18.4712 15.3757 18.5445 15.2378C18.6306 15.0871 18.7168 14.9966 18.8029 14.9665C18.8891 14.932 18.9946 14.9492 19.1195 15.0182C19.2445 15.0914 19.3134 15.1689 19.3263 15.2508C19.3435 15.3326 19.3155 15.4446 19.2423 15.5868C19.2035 15.66 19.1605 15.7375 19.1131 15.8194C19.0657 15.8969 19.014 15.9745 18.958 16.052H18.9903C19.1282 16.052 19.2423 16.0628 19.3328 16.0843C19.4275 16.1015 19.5008 16.136 19.5525 16.1877C19.6085 16.2394 19.6472 16.3126 19.6688 16.4074C19.6903 16.5022 19.7011 16.6249 19.7011 16.7757V17.9517C19.7011 18.0938 19.6925 18.2123 19.6752 18.3071C19.658 18.4018 19.6235 18.4772 19.5718 18.5332C19.5202 18.5892 19.4469 18.6302 19.3522 18.656C19.2617 18.6775 19.1411 18.6883 18.9903 18.6883H18.7965ZM16.0503 19.3732C16.2269 19.5757 16.2248 19.7782 16.0438 19.9806C15.9706 20.0625 15.9017 20.1357 15.8371 20.2003C15.7725 20.2649 15.71 20.3252 15.6497 20.3812C15.5894 20.4415 15.5269 20.4997 15.4623 20.5557C15.3977 20.6117 15.3288 20.6698 15.2555 20.7302C15.1608 20.8034 15.0638 20.8529 14.9648 20.8788C14.8657 20.9089 14.7774 20.9068 14.6998 20.8723C14.6223 20.8378 14.562 20.7646 14.5189 20.6526C14.4758 20.5449 14.4629 20.3898 14.4802 20.1874L14.7063 17.6868C14.7106 17.6394 14.702 17.6006 14.6805 17.5705C14.6632 17.536 14.6352 17.5209 14.5965 17.5252L14.2217 17.564C14.0709 17.5769 13.9675 17.5575 13.9115 17.5058C13.8598 17.4498 13.834 17.3378 13.834 17.1698C13.834 17.032 13.8577 16.9329 13.9051 16.8726C13.9568 16.8123 14.0472 16.7778 14.1765 16.7692L14.8291 16.7175C15.0531 16.7003 15.2275 16.7434 15.3525 16.8468C15.4774 16.9458 15.5269 17.1311 15.5011 17.4025L15.3072 19.496C15.2986 19.5822 15.3051 19.6274 15.3266 19.6317C15.3525 19.6317 15.402 19.5843 15.4752 19.4895C15.5872 19.3388 15.6885 19.2569 15.7789 19.244C15.8694 19.2311 15.9598 19.2742 16.0503 19.3732ZM18.9386 16.8791C18.9386 16.8145 18.9128 16.7822 18.8611 16.7822H16.8257C16.7955 16.7822 16.7762 16.7908 16.7675 16.808C16.7632 16.8209 16.7611 16.8446 16.7611 16.8791V17.8418C16.7611 17.8763 16.7632 17.9043 16.7675 17.9258C16.7762 17.9431 16.7955 17.9517 16.8257 17.9517H18.8611C18.9128 17.9517 18.9386 17.9151 18.9386 17.8418V16.8791ZM15.3202 15.8129C15.5183 16.0498 15.5269 16.2566 15.346 16.4332C15.2512 16.528 15.1543 16.5689 15.0552 16.556C14.9605 16.5431 14.8592 16.4677 14.7515 16.3298C14.7042 16.2695 14.6611 16.2178 14.6223 16.1748C14.5835 16.1274 14.5448 16.0822 14.506 16.0391C14.4672 15.9917 14.4242 15.9443 14.3768 15.8969C14.3337 15.8495 14.282 15.7935 14.2217 15.7289C14.1226 15.6212 14.0666 15.5243 14.0537 15.4382C14.0451 15.3477 14.0838 15.2508 14.17 15.1474C14.3294 14.9578 14.5211 14.9686 14.7451 15.1797C14.8269 15.2572 14.9152 15.352 15.01 15.464C15.1091 15.5717 15.2125 15.688 15.3202 15.8129ZM24.4568 20.2003C24.6032 20.252 24.7195 20.2865 24.8057 20.3037C24.8918 20.3209 24.9565 20.3231 24.9995 20.3102C25.0469 20.3015 25.0771 20.2778 25.09 20.2391C25.1029 20.2046 25.1094 20.1615 25.1094 20.1098V19.1406H23.6103C23.5715 19.3474 23.522 19.5369 23.4617 19.7092C23.4014 19.8772 23.3282 20.0345 23.242 20.1809C23.1558 20.3274 23.0568 20.4652 22.9448 20.5945C22.8328 20.7237 22.7057 20.8508 22.5635 20.9757C22.5075 21.0274 22.4472 21.0683 22.3826 21.0985C22.318 21.1329 22.2534 21.1545 22.1888 21.1631C22.1242 21.1717 22.0617 21.1631 22.0014 21.1372C21.9454 21.1157 21.8958 21.0726 21.8528 21.008C21.7838 20.9003 21.758 20.7969 21.7752 20.6978C21.7968 20.6031 21.8678 20.5083 21.9885 20.4135C22.1608 20.28 22.3072 20.14 22.4278 19.9935C22.5485 19.8428 22.6454 19.6726 22.7186 19.4831C22.7918 19.2935 22.8457 19.0782 22.8802 18.8369C22.9146 18.5914 22.9318 18.3071 22.9318 17.984V15.8969C22.9318 15.7505 22.9426 15.632 22.9642 15.5415C22.9857 15.4468 23.0245 15.3735 23.0805 15.3218C23.1365 15.2702 23.2075 15.2357 23.2937 15.2185C23.3842 15.2012 23.4983 15.1926 23.6362 15.1926H25.1805C25.314 15.1926 25.426 15.2034 25.5165 15.2249C25.6069 15.2422 25.678 15.2766 25.7297 15.3283C25.7857 15.38 25.8245 15.4532 25.846 15.548C25.8675 15.6428 25.8783 15.7634 25.8783 15.9098V20.1422C25.8783 20.4609 25.8137 20.6871 25.6845 20.8206C25.5552 20.9542 25.3872 21.0317 25.1805 21.0532C25.0986 21.0618 25.0211 21.0662 24.9478 21.0662C24.8746 21.0705 24.7992 21.0662 24.7217 21.0532C24.6442 21.0446 24.5602 21.0295 24.4697 21.008C24.3792 20.9865 24.2802 20.9563 24.1725 20.9175C24.0346 20.8658 23.9485 20.7969 23.914 20.7108C23.8795 20.6289 23.886 20.5298 23.9334 20.4135C23.9851 20.2843 24.054 20.2046 24.1402 20.1745C24.2263 20.1443 24.3319 20.1529 24.4568 20.2003ZM22.3374 19.3732C22.3374 19.6102 22.2943 19.7825 22.2082 19.8902C22.122 19.9935 21.9648 20.0452 21.7365 20.0452H20.7285C20.5002 20.0452 20.3429 19.9935 20.2568 19.8902C20.1749 19.7825 20.134 19.6102 20.134 19.3732V16.0262C20.134 15.7806 20.1749 15.6083 20.2568 15.5092C20.3429 15.4058 20.5002 15.3542 20.7285 15.3542H21.7365C21.9648 15.3542 22.122 15.4058 22.2082 15.5092C22.2943 15.6083 22.3374 15.7806 22.3374 16.0262V19.3732ZM23.7008 17.9969C23.7008 18.0702 23.6986 18.1412 23.6943 18.2102C23.6943 18.2748 23.6922 18.3372 23.6878 18.3975H25.1094V17.5123H23.7008V17.9969ZM23.7008 16.7628H25.1094V16.1812C25.1094 16.0822 25.0965 16.0197 25.0706 15.9938C25.0491 15.9637 24.9866 15.9486 24.8832 15.9486H23.9205C23.8214 15.9486 23.7589 15.9594 23.7331 15.9809C23.7115 16.0025 23.7008 16.0628 23.7008 16.1618V16.7628ZM20.8448 19.1923C20.8448 19.2397 20.8512 19.2698 20.8642 19.2828C20.8771 19.2914 20.9029 19.2957 20.9417 19.2957H21.5426C21.5771 19.2957 21.5986 19.2914 21.6072 19.2828C21.6202 19.2698 21.6266 19.2418 21.6266 19.1988V17.9711H20.8448V19.1923ZM21.6266 16.2135C21.6266 16.1662 21.6202 16.136 21.6072 16.1231C21.5986 16.1102 21.5706 16.1037 21.5232 16.1037H20.9417C20.9072 16.1037 20.8814 16.1102 20.8642 16.1231C20.8512 16.136 20.8448 16.1662 20.8448 16.2135V17.2022H21.6266V16.2135Z" fill="white"/>
<defs>
<filter id="filter0_d_867_679" x="7.84615" y="1.92308" width="12.3077" height="12.3077" filterUnits="userSpaceOnUse" color-interpolation-filters="sRGB">
<feFlood flood-opacity="0" result="BackgroundImageFix"/>
<feColorMatrix in="SourceAlpha" type="matrix" values="0 0 0 0 0 0 0 0 0 0 0 0 0 0 0 0 0 0 127 0" result="hardAlpha"/>
<feOffset dy="1.07692"/>
<feGaussianBlur stdDeviation="1.07692"/>
<feComposite in2="hardAlpha" operator="out"/>
<feColorMatrix type="matrix" values="0 0 0 0 0.179497 0 0 0 0 0.500522 0 0 0 0 0.879167 0 0 0 0.54 0"/>
<feBlend mode="normal" in2="BackgroundImageFix" result="effect1_dropShadow_867_679"/>
<feBlend mode="normal" in="SourceGraphic" in2="effect1_dropShadow_867_679" result="shape"/>
</filter>
<filter id="filter1_bi_867_679" x="-2.15385" y="10.7692" width="32.3077" height="15.0769" filterUnits="userSpaceOnUse" color-interpolation-filters="sRGB">
<feFlood flood-opacity="0" result="BackgroundImageFix"/>
<feGaussianBlur in="BackgroundImageFix" stdDeviation="1.07692"/>
<feComposite in2="SourceAlpha" operator="in" result="effect1_backgroundBlur_867_679"/>
<feBlend mode="normal" in="SourceGraphic" in2="effect1_backgroundBlur_867_679" result="shape"/>
<feColorMatrix in="SourceAlpha" type="matrix" values="0 0 0 0 0 0 0 0 0 0 0 0 0 0 0 0 0 0 127 0" result="hardAlpha"/>
<feOffset/>
<feGaussianBlur stdDeviation="1.07692"/>
<feComposite in2="hardAlpha" operator="arithmetic" k2="-1" k3="1"/>
<feColorMatrix type="matrix" values="0 0 0 0 1 0 0 0 0 1 0 0 0 0 1 0 0 0 0.51 0"/>
<feBlend mode="normal" in2="shape" result="effect2_innerShadow_867_679"/>
</filter>
<linearGradient id="paint0_linear_867_679" x1="14.0005" y1="1.07692" x2="14.0005" y2="21" gradientUnits="userSpaceOnUse">
<stop stop-color="#51C6FF"/>
<stop offset="1" stop-color="#0075FF"/>
</linearGradient>
</defs>
</svg>
